<?xml version="1.0" encoding="utf-8"?>
<!-- Generator: Adobe Illustrator 18.0.0, SVG Export Plug-In . SVG Version: 6.00 Build 0)  -->
<!DOCTYPE svg PUBLIC "-//W3C//DTD SVG 1.1//EN" "http://www.w3.org/Graphics/SVG/1.1/DTD/svg11.dtd">
<svg version="1.1" id="Layer_1" xmlns="http://www.w3.org/2000/svg" xmlns:xlink="http://www.w3.org/1999/xlink" x="0px" y="0px"
	 viewBox="0 0 490 110" enable-background="new 0 0 490 110" xml:space="preserve">
<g>
	<g>
		<path fill="#333333" d="M141,33.2c3-0.8,6.8-1.6,11.5-2.4c4.7-0.8,10-1.1,15.7-1.1c5.4,0,9.9,0.7,13.5,2.2
			c3.6,1.5,6.5,3.6,8.7,6.2c2.2,2.7,3.7,5.9,4.6,9.6c0.9,3.8,1.3,7.9,1.3,12.4v37.3H181V62.5c0-3.6-0.2-6.6-0.7-9.1
			c-0.5-2.5-1.2-4.5-2.3-6.1c-1.1-1.6-2.5-2.7-4.3-3.4c-1.8-0.7-4-1.1-6.6-1.1c-1.9,0-4,0.1-6.1,0.4c-2.1,0.3-3.7,0.5-4.7,0.6v53.5
			H141V33.2z"/>
		<path fill="#333333" d="M221,97.4c-4.2-8.7-8.6-18.7-13-30c-4.5-11.3-8.5-23.4-12.1-36.3h16.3c0.9,3.7,2,7.7,3.2,12
			c1.2,4.3,2.5,8.5,3.9,12.8c1.4,4.3,2.8,8.4,4.3,12.4c1.5,4,2.9,7.6,4.1,10.8c1.3-3.2,2.6-6.8,4.1-10.8c1.4-4,2.9-8.2,4.3-12.4
			c1.4-4.3,2.7-8.5,4-12.8c1.3-4.3,2.4-8.3,3.3-12h15.8c-3.6,12.9-7.7,25.1-12.1,36.3c-4.5,11.3-8.8,21.3-13,30H221z"/>
		<path fill="#333333" d="M324.4,64.1c0,5.2-0.8,10-2.4,14.3c-1.6,4.3-3.9,8-6.9,11c-3,3-6.5,5.4-10.7,7.1
			c-4.2,1.7-8.8,2.5-13.8,2.5c-5,0-9.6-0.8-13.7-2.5c-4.1-1.7-7.7-4.1-10.6-7.1c-3-3-5.3-6.7-6.9-11c-1.7-4.3-2.5-9.1-2.5-14.3
			c0-5.2,0.8-10,2.5-14.3c1.7-4.3,4-7.9,7-11c3-3,6.6-5.4,10.7-7c4.1-1.6,8.7-2.5,13.6-2.5c4.9,0,9.5,0.8,13.7,2.5
			c4.2,1.6,7.7,4,10.7,7c3,3,5.3,6.7,6.9,11C323.6,54.1,324.4,58.9,324.4,64.1z M307.8,64.1c0-6.6-1.5-11.8-4.5-15.7
			c-3-3.8-7.2-5.8-12.6-5.8s-9.6,1.9-12.6,5.8c-3,3.8-4.5,9.1-4.5,15.7c0,6.7,1.5,12,4.5,15.9c3,3.9,7.2,5.8,12.6,5.8
			s9.6-1.9,12.6-5.8C306.2,76.1,307.8,70.8,307.8,64.1z"/>
		<g>
			<polygon fill="#333333" points="417.2,45.2 417.2,45.2 417.2,45.2 			"/>
			<path fill="#333333" d="M462.9,44.9c-0.9-3.3-2-6-4-8.3c-2.1-2.3-4.6-4.1-8.1-5.3c-3.5-1.3-7.6-1.9-12.7-1.9c-4.2,0-8.3,0.3-12,1
				c-3.5,0.6-4.2,1.3-8.2,1.9v0c-1.6-0.4-2.7-0.9-3.9-1.2c-1.3-0.3-2.5-0.5-3.9-0.8c-1.4-0.2-2.7-0.4-4-0.5
				c-1.4-0.1-2.5-0.2-3.5-0.2c-5.4,0-10.1,0.5-14.6,1.5c-4.4,1-6.9,2-10.9,3.1v47.9c-4.4,1.2-6.8,1.9-9.1,2.4
				c-2.2,0.6-7.1,1.2-9.9,1.2c-4.1,0-7.9-1.1-9.6-3.4c-1.7-2.3-3.5-6.1-3.5-11.4v-28H368V29.3h-23.1V11l-14.5,2.7v57.5
				c0,4.4,0.6,8.3,1.4,11.7c0.8,3.4,2.9,6.2,4.7,8.6c1.9,2.4,4.4,4.3,7.6,5.5c3.2,1.3,7.1,1.9,11.9,1.9c3.9,0,7.4-0.4,10.3-1.2
				c2-0.6,4.9-1,10.9-3.5L377,98h15.5V44.2c0-0.3,1.9-0.5,3.8-0.9c1.9-0.3,3.6-0.5,5.3-0.5c3,0,5.5,0.2,7.7,0.7
				c2.2,0.5,5.9,2.3,8.3,4.3c2.1-2.6,6.8-4.3,9.3-4.8c3-0.5,6.2-0.8,9.7-0.8c2.6,0,4.8,0.3,6.5,1c1.7,0.7,3.1,1.6,4.2,2.9
				c1.1,1.2,1.5,2.6,1.9,4.2c0.4,1.6,0.3,3.3,0.3,5.1V58c0-0.5-3.8-0.9-5.7-1.1c-1.9-0.2-3.5-0.3-5.2-0.3c-3.6,0-7,0.4-10.4,1.1
				c-3.3,0.7-6.2,1.9-8.8,3.6c-2.5,1.6-4.5,3.8-6,6.4c-1.5,2.6-2.2,5.8-2.2,9.6c0,4,0.7,7.3,2,10c1.3,2.7,3.1,4.9,5.4,6.6
				c2.3,1.7,5.1,2.9,8.4,3.7c3.3,0.8,6.9,1.1,10.9,1.1c6,0,10.6-0.4,15.4-1.1c4.8-0.7,9.9-1.3,9.9-1.8V55.6
				C463.4,51.7,463.8,48.2,462.9,44.9z M449.6,85.8c0,0.5-5.7,0.8-10.5,0.8c-3.9,0-6.8-0.7-9.1-2.1c-2.3-1.4-3.3-3.9-3.3-7.5
				c0-1.9,0.5-3.4,1.3-4.6c0.8-1.2,2-2.2,3.4-2.9c1.4-0.7,3-1.1,4.7-1.4c1.7-0.3,3.4-0.4,5.1-0.4c1.9,0,3.4,0.1,5,0.4
				c1.6,0.3,3.4,0.5,3.4,0.8V85.8z"/>
		</g>
		<path fill="#333333" d="M134.4,19.1c0,2.7-0.9,4.8-2.7,6.4c-1.8,1.6-4,2.4-6.5,2.4c-2.6,0-4.8-0.8-6.6-2.4
			c-1.8-1.6-2.7-3.7-2.7-6.4c0-2.8,0.9-4.9,2.7-6.5c1.8-1.6,4-2.4,6.6-2.4c2.5,0,4.6,0.8,6.5,2.4C133.4,14.1,134.4,16.3,134.4,19.1z
			"/>
		<path fill="#333333" d="M117.6,39.7v57.7h15.1V35l0,0C128.8,36,123.7,37.5,117.6,39.7z"/>
		<g>
			<path fill="#333333" d="M486,89.1c0,1.3-0.2,2.5-0.7,3.6c-0.4,1.1-1,1.9-1.8,2.7c-0.7,0.7-1.6,1.3-2.5,1.7c-1,0.4-2,0.6-3,0.6
				s-2.1-0.2-3-0.6c-1-0.4-1.8-0.9-2.5-1.7c-0.7-0.7-1.3-1.6-1.8-2.7c-0.4-1.1-0.7-2.2-0.7-3.6c0-1.3,0.2-2.5,0.7-3.6
				c0.4-1.1,1-1.9,1.8-2.7c0.7-0.7,1.6-1.3,2.5-1.7c1-0.4,2-0.6,3-0.6s2.1,0.2,3,0.6c1,0.4,1.8,0.9,2.5,1.7c0.7,0.7,1.3,1.6,1.8,2.7
				C485.8,86.6,486,87.8,486,89.1z M484.3,89.1c0-1-0.2-2-0.5-2.8c-0.3-0.9-0.7-1.6-1.3-2.2c-0.6-0.6-1.2-1.1-2-1.4
				c-0.8-0.3-1.6-0.5-2.5-0.5c-0.9,0-1.8,0.2-2.5,0.5c-0.8,0.3-1.4,0.8-2,1.4c-0.6,0.6-1,1.3-1.3,2.2c-0.3,0.9-0.5,1.8-0.5,2.8
				c0,1,0.2,2,0.5,2.8c0.3,0.9,0.7,1.6,1.3,2.2c0.6,0.6,1.2,1.1,2,1.4c0.8,0.3,1.6,0.5,2.5,0.5c0.9,0,1.8-0.2,2.5-0.5
				c0.8-0.3,1.4-0.8,2-1.4c0.6-0.6,1-1.3,1.3-2.2C484.2,91.1,484.3,90.1,484.3,89.1z M480.4,93.8c-0.4-0.7-0.8-1.4-1.2-2
				c-0.4-0.6-0.8-1.1-1.2-1.5h-1.6v3.5h-1.7v-9.1c0.4-0.1,0.9-0.2,1.3-0.2c0.5,0,0.9-0.1,1.3-0.1c1.3,0,2.4,0.2,3.1,0.7
				c0.7,0.5,1.1,1.3,1.1,2.3c0,0.6-0.2,1.1-0.5,1.5c-0.3,0.4-0.7,0.8-1.3,1c0.2,0.2,0.3,0.4,0.5,0.7c0.2,0.3,0.4,0.6,0.6,0.9
				c0.2,0.3,0.4,0.7,0.7,1.1c0.2,0.4,0.4,0.7,0.6,1.1L480.4,93.8L480.4,93.8z M476.4,88.9h0.9c0.7,0,1.3-0.1,1.8-0.3
				c0.5-0.2,0.7-0.6,0.7-1.2c0-0.6-0.2-1-0.7-1.2c-0.4-0.2-1-0.3-1.6-0.3c-0.2,0-0.4,0-0.5,0c-0.2,0-0.4,0-0.5,0L476.4,88.9
				L476.4,88.9z"/>
		</g>
	</g>
	<g>
		<path fill="#4BB88B" d="M72.4,30.3C67,32.1,62,34.6,57.5,37.8c-4.5,3.2-8.4,7.1-11.7,11.5c-2.1-1.1-4.8-2.9-7.6-5.4
			c-7.4-6.5-12.2-15.1-14.2-25.4c6.9-4.5,15.2-7.1,24.1-7.1c13.9,0,26.3,6.4,34.4,16.5C79.8,28.4,76.3,29.1,72.4,30.3z"/>
		<path fill="#6FC6A2" d="M32.3,51.4c3,2.6,5.9,4.5,8.3,5.9c-1.4,1.9-3.4,4.3-6.1,6.7c-7.2,6.4-16,10.1-26.2,11
			C5.5,69.1,4,62.6,4,55.6c0-11.7,4.6-22.4,12-30.3c1.3,4.7,3.2,9.2,5.7,13.2C24.5,43.4,28.1,47.7,32.3,51.4z"/>
		<path fill="#6FC6A2" d="M76.1,77.5c-2.4-5.2-5.5-9.8-9.2-13.9c-3.6-3.9-7.8-7.3-12.4-10C66.7,38.3,84.4,37,88.2,36.9
			c2.7,5.7,4.1,12,4.1,18.7c0,12.1-4.9,23.1-12.8,31.1C78.8,84.1,77.7,80.9,76.1,77.5z"/>
		<path fill="#4BB88B" d="M27.3,79.8c5.1-2.3,9.8-5.3,14-9.1c3.7-3.3,6.3-6.7,8-9.1c17.2,9.7,21.2,26.7,22.1,31.7
			c-6.7,4.2-14.7,6.6-23.2,6.6c-13.7,0-26-6.3-34.1-16.1C18.7,82.9,23.1,81.6,27.3,79.8z"/>
	</g>
</g>
</svg>
