<?xml version="1.0" encoding="utf-8"?>
<!-- Generator: Adobe Illustrator 17.1.0, SVG Export Plug-In . SVG Version: 6.00 Build 0)  -->
<!DOCTYPE svg PUBLIC "-//W3C//DTD SVG 1.1//EN" "http://www.w3.org/Graphics/SVG/1.1/DTD/svg11.dtd">
<svg version="1.1" id="Layer_1" xmlns="http://www.w3.org/2000/svg" xmlns:xlink="http://www.w3.org/1999/xlink" x="0px" y="0px"
	 viewBox="0 0 183 34" enable-background="new 0 0 183 34" xml:space="preserve">
<g>
	<g>
		<g>
			<path fill="#FFFFFF" d="M54.8,9.4c1-0.3,2.4-0.6,4-0.8c1.6-0.3,3.5-0.4,5.5-0.4c1.9,0,3.5,0.3,4.7,0.8c1.3,0.5,2.3,1.2,3,2.2
				c0.8,0.9,1.3,2,1.6,3.4c0.3,1.3,0.5,2.7,0.5,4.3v13h-5.3V19.6c0-1.2-0.1-2.3-0.2-3.2c-0.2-0.9-0.4-1.6-0.8-2.1
				c-0.4-0.5-0.9-0.9-1.5-1.2c-0.6-0.2-1.4-0.4-2.3-0.4c-0.7,0-1.4,0-2.1,0.1C61,13,60.5,13,60.1,13.1v18.7h-5.3V9.4z"/>
			<path fill="#FFFFFF" d="M82.6,31.8c-1.5-3-3-6.5-4.5-10.5c-1.6-3.9-3-8.2-4.2-12.7h5.7c0.3,1.3,0.7,2.7,1.1,4.2
				c0.4,1.5,0.9,3,1.4,4.5c0.5,1.5,1,2.9,1.5,4.3c0.5,1.4,1,2.7,1.4,3.8c0.4-1.1,0.9-2.4,1.4-3.8c0.5-1.4,1-2.8,1.5-4.3
				c0.5-1.5,1-3,1.4-4.5c0.4-1.5,0.8-2.9,1.2-4.2H96c-1.3,4.5-2.7,8.7-4.2,12.7c-1.6,3.9-3.1,7.4-4.5,10.5H82.6z"/>
			<path fill="#FFFFFF" d="M118.7,20.2c0,1.8-0.3,3.5-0.8,5c-0.6,1.5-1.4,2.8-2.4,3.8c-1,1.1-2.3,1.9-3.7,2.5
				c-1.5,0.6-3.1,0.9-4.8,0.9c-1.8,0-3.3-0.3-4.8-0.9c-1.4-0.6-2.7-1.4-3.7-2.5c-1-1.1-1.8-2.3-2.4-3.8c-0.6-1.5-0.9-3.2-0.9-5
				c0-1.8,0.3-3.5,0.9-5c0.6-1.5,1.4-2.8,2.4-3.8c1-1.1,2.3-1.9,3.7-2.5c1.4-0.6,3-0.9,4.7-0.9c1.7,0,3.3,0.3,4.8,0.9
				c1.5,0.6,2.7,1.4,3.7,2.5c1,1.1,1.8,2.3,2.4,3.8C118.4,16.7,118.7,18.4,118.7,20.2z M112.9,20.2c0-2.3-0.5-4.1-1.6-5.5
				c-1-1.3-2.5-2-4.4-2c-1.9,0-3.3,0.7-4.4,2c-1,1.3-1.6,3.2-1.6,5.5c0,2.3,0.5,4.2,1.6,5.5c1,1.4,2.5,2,4.4,2c1.9,0,3.3-0.7,4.4-2
				C112.4,24.4,112.9,22.5,112.9,20.2z"/>
			<g>
				<polygon fill="#FFFFFF" points="151,13.6 151,13.6 151,13.6 				"/>
				<path fill="#FFFFFF" d="M167,13.5c-0.3-1.1-0.7-2.1-1.4-2.9c-0.7-0.8-1.6-1.4-2.8-1.9c-1.2-0.4-2.7-0.7-4.4-0.7
					c-1.5,0-2.9,0.1-4.2,0.4c-1.2,0.2-1.5,0.4-2.9,0.7v0c-0.6-0.2-0.9-0.3-1.4-0.4c-0.4-0.1-0.9-0.2-1.3-0.3
					c-0.5-0.1-0.9-0.1-1.4-0.2c-0.5,0-0.9-0.1-1.2-0.1c-1.9,0-3.5,0.2-5.1,0.5c-1.5,0.3-2.4,0.7-3.8,1.1v16.7
					c-1.5,0.4-2.4,0.6-3.2,0.8c-0.8,0.2-2.5,0.4-3.4,0.4c-1.4,0-2.8-0.4-3.3-1.2c-0.6-0.8-1.2-2.1-1.2-4v-9.8h8V8h-8V1.6l-5.1,0.9
					v20c0,1.5,0.2,2.9,0.5,4.1c0.3,1.2,1,2.2,1.6,3c0.6,0.8,1.5,1.5,2.6,1.9c1.1,0.4,2.5,0.7,4.1,0.7c1.4,0,2.6-0.1,3.6-0.4
					c0.7-0.2,1.7-0.4,3.8-1.2l0,1.4h5.4V13.2c0-0.1,0.6-0.2,1.3-0.3c0.7-0.1,1.2-0.2,1.8-0.2c1,0,1.9,0.1,2.7,0.2
					c0.8,0.2,2.1,0.8,2.9,1.5c0.7-0.9,2.4-1.5,3.3-1.7c1-0.2,2.2-0.3,3.4-0.3c0.9,0,1.7,0.1,2.3,0.4c0.6,0.2,1.1,0.6,1.5,1
					c0.4,0.4,0.5,0.9,0.7,1.5c0.1,0.6,0.1,1.2,0.1,1.8v0.9c0-0.2-1.3-0.3-2-0.4c-0.6-0.1-1.2-0.1-1.8-0.1c-1.3,0-2.5,0.1-3.6,0.4
					c-1.2,0.3-2.2,0.7-3.1,1.2c-0.9,0.6-1.6,1.3-2.1,2.2c-0.5,0.9-0.8,2-0.8,3.4c0,1.4,0.2,2.6,0.7,3.5c0.5,0.9,1.1,1.7,1.9,2.3
					c0.8,0.6,1.8,1,2.9,1.3c1.1,0.3,2.4,0.4,3.8,0.4c2.1,0,3.7-0.1,5.4-0.4c1.7-0.3,3.5-0.5,3.5-0.6v-14
					C167.2,15.9,167.3,14.6,167,13.5z M162.3,27.7c0,0.2-2,0.3-3.6,0.3c-1.4,0-2.4-0.2-3.2-0.7c-0.8-0.5-1.2-1.4-1.2-2.6
					c0-0.6,0.2-1.2,0.5-1.6c0.3-0.4,0.7-0.8,1.2-1c0.5-0.2,1-0.4,1.6-0.5c0.6-0.1,1.2-0.1,1.8-0.1c0.7,0,1.2,0,1.8,0.1
					c0.6,0.1,1.2,0.2,1.2,0.3V27.7z"/>
			</g>
			<path fill="#FFFFFF" d="M52.4,4.5c0,0.9-0.3,1.7-1,2.2c-0.6,0.6-1.4,0.8-2.3,0.8c-0.9,0-1.7-0.3-2.3-0.8c-0.6-0.6-1-1.3-1-2.2
				c0-1,0.3-1.7,1-2.3c0.6-0.6,1.4-0.8,2.3-0.8c0.9,0,1.6,0.3,2.3,0.8C52.1,2.8,52.4,3.5,52.4,4.5z"/>
			<path fill="#FFFFFF" d="M46.6,11.7v20.1h5.3V10l0,0C50.5,10.4,48.7,10.9,46.6,11.7z"/>
			<g>
				<path fill="#FFFFFF" d="M175.1,28.9c0,0.5-0.1,0.9-0.2,1.2c-0.2,0.4-0.4,0.7-0.6,0.9c-0.3,0.3-0.6,0.4-0.9,0.6
					c-0.3,0.1-0.7,0.2-1.1,0.2s-0.7-0.1-1.1-0.2c-0.3-0.1-0.6-0.3-0.9-0.6c-0.3-0.3-0.5-0.6-0.6-0.9s-0.2-0.8-0.2-1.2
					c0-0.5,0.1-0.9,0.2-1.2c0.2-0.4,0.4-0.7,0.6-0.9c0.3-0.3,0.6-0.4,0.9-0.6c0.3-0.1,0.7-0.2,1.1-0.2s0.7,0.1,1.1,0.2
					c0.3,0.1,0.6,0.3,0.9,0.6c0.3,0.3,0.5,0.6,0.6,0.9C175,28,175.1,28.4,175.1,28.9z M174.5,28.9c0-0.4-0.1-0.7-0.2-1
					c-0.1-0.3-0.3-0.6-0.5-0.8c-0.2-0.2-0.4-0.4-0.7-0.5c-0.3-0.1-0.6-0.2-0.9-0.2c-0.3,0-0.6,0.1-0.9,0.2c-0.3,0.1-0.5,0.3-0.7,0.5
					c-0.2,0.2-0.3,0.5-0.5,0.8c-0.1,0.3-0.2,0.6-0.2,1c0,0.4,0.1,0.7,0.2,1c0.1,0.3,0.3,0.6,0.5,0.8s0.4,0.4,0.7,0.5
					c0.3,0.1,0.6,0.2,0.9,0.2c0.3,0,0.6-0.1,0.9-0.2c0.3-0.1,0.5-0.3,0.7-0.5c0.2-0.2,0.3-0.5,0.5-0.8
					C174.4,29.6,174.5,29.3,174.5,28.9z M173.1,30.5c-0.1-0.2-0.3-0.5-0.4-0.7c-0.2-0.2-0.3-0.4-0.4-0.5h-0.5v1.2h-0.6v-3.2
					c0.1,0,0.3-0.1,0.5-0.1c0.2,0,0.3,0,0.4,0c0.5,0,0.8,0.1,1.1,0.3c0.2,0.2,0.4,0.4,0.4,0.8c0,0.2-0.1,0.4-0.2,0.5
					c-0.1,0.1-0.3,0.3-0.5,0.3c0.1,0.1,0.1,0.1,0.2,0.2c0.1,0.1,0.1,0.2,0.2,0.3c0.1,0.1,0.2,0.2,0.2,0.4c0.1,0.1,0.1,0.3,0.2,0.4
					L173.1,30.5L173.1,30.5z M171.7,28.8h0.3c0.2,0,0.4,0,0.6-0.1c0.2-0.1,0.2-0.2,0.2-0.4c0-0.2-0.1-0.3-0.2-0.4
					c-0.2-0.1-0.3-0.1-0.6-0.1c-0.1,0-0.1,0-0.2,0c-0.1,0-0.1,0-0.2,0L171.7,28.8L171.7,28.8z"/>
			</g>
		</g>
	</g>
	<circle fill="#FFFFFF" cx="23" cy="17" r="15.6"/>
	<g>
		<path fill="#4BA983" d="M30.3,9.3c-1.6,0.5-3.1,1.3-4.5,2.3c-1.3,1-2.5,2.1-3.5,3.5c-0.6-0.3-1.4-0.9-2.3-1.6
			c-2.2-2-3.7-4.5-4.3-7.7c2.1-1.4,4.6-2.2,7.3-2.2c4.2,0,7.9,1.9,10.4,5C32.5,8.8,31.5,9,30.3,9.3z"/>
		<path fill="#6FBA9B" d="M18.2,15.7c0.9,0.8,1.8,1.4,2.5,1.8c-0.4,0.6-1,1.3-1.8,2c-2.2,1.9-4.8,3.1-7.9,3.3
			c-0.9-1.8-1.3-3.7-1.3-5.8c0-3.5,1.4-6.8,3.6-9.1c0.4,1.4,1,2.8,1.7,4C15.9,13.3,16.9,14.6,18.2,15.7z"/>
		<path fill="#6FBA9B" d="M31.4,23.6c-0.7-1.6-1.7-3-2.8-4.2c-1.1-1.2-2.3-2.2-3.8-3c3.7-4.6,9-5,10.2-5c0.8,1.7,1.3,3.6,1.3,5.6
			c0,3.7-1.5,7-3.9,9.4C32.2,25.6,31.9,24.6,31.4,23.6z"/>
		<path fill="#4BA983" d="M16.7,24.3c1.5-0.7,3-1.6,4.2-2.7c1.1-1,1.9-2,2.4-2.8c5.2,2.9,6.4,8.1,6.7,9.6c-2,1.3-4.4,2-7,2
			c-4.1,0-7.8-1.9-10.3-4.9C14.1,25.2,15.4,24.8,16.7,24.3z"/>
	</g>
</g>
</svg>
