<?xml version="1.0" encoding="utf-8"?>
<!-- Generator: Adobe Illustrator 22.0.1, SVG Export Plug-In . SVG Version: 6.00 Build 0)  -->
<svg version="1.1" id="Layer_1" xmlns="http://www.w3.org/2000/svg" xmlns:xlink="http://www.w3.org/1999/xlink" x="0px" y="0px"
	 viewBox="0 0 300 300" style="enable-background:new 0 0 300 300;" xml:space="preserve">
<style type="text/css">
	.st0{display:none;}
	.st1{display:inline;fill:#FFFFFF;}
	.st2{display:inline;}
	.st3{fill:#FFFFFF;}
	.st4{fill:#49BC92;}
	.st5{fill:#75C7A4;}
	.st6{fill:#48AE8A;}
	.st7{fill:#73BB9D;}
</style>
<g id="White" class="st0">
	<rect class="st1" width="300" height="300"/>
	<g class="st2">
		<circle class="st3" cx="150" cy="150.1" r="92.5"/>
		<g>
			<path class="st4" d="M200.8,96.8c-11.3,3.7-21.8,9-31.2,15.7c-9.3,6.7-17.5,14.8-24.5,24.2c-4.4-2.4-10-6.1-15.9-11.2
				c-15.5-13.7-25.5-31.6-29.7-53.1c14.5-9.5,31.8-14.9,50.4-14.9c29.1,0,55.1,13.5,72.1,34.5C216.2,92.7,208.9,94.2,200.8,96.8z"/>
			<path class="st5" d="M116.9,140.9c6.3,5.5,12.4,9.5,17.4,12.4c-2.9,4-7.1,8.9-12.7,13.9c-15.1,13.5-33.6,21.2-54.9,23
				c-5.9-12.2-9.3-25.9-9.3-40.4c0-24.5,9.6-46.8,25.2-63.4c2.8,9.9,6.8,19.2,11.9,27.7C100.5,124.2,108.1,133.2,116.9,140.9z"/>
			<path class="st5" d="M208.6,195.7c-5-10.8-11.5-20.6-19.3-29.1c-7.5-8.2-16.3-15.2-26-20.9c25.7-32.1,62.6-34.8,70.6-35
				c5.6,11.9,8.7,25.2,8.7,39.2c0,25.4-10.2,48.4-26.8,65.1C214.2,209.5,211.9,202.8,208.6,195.7z"/>
			<path class="st4" d="M106.3,200.4c10.7-4.8,20.6-11.2,29.3-19.1c7.7-7,13.2-14,16.7-19.1c35.9,20.4,44.5,56,46.3,66.5
				c-14.1,8.7-30.7,13.7-48.5,13.7c-28.8,0-54.5-13.1-71.4-33.7C88.3,207,97.6,204.2,106.3,200.4z"/>
		</g>
	</g>
</g>
<g>
	<path class="st6" d="M201.6,95.9c-11.5,3.8-22.2,9.1-31.7,16c-9.5,6.8-17.8,15-24.8,24.5c-4.4-2.4-10.2-6.1-16.1-11.4
		c-15.7-13.9-25.9-32-30.1-53.9c14.7-9.6,32.3-15.2,51.2-15.2c29.6,0,56,13.7,73.2,35.1C217.2,91.7,209.8,93.2,201.6,95.9z"/>
	<path class="st7" d="M116.4,140.7c6.4,5.5,12.6,9.6,17.7,12.5c-2.9,4-7.2,9.1-12.9,14.1c-15.4,13.7-34.1,21.5-55.7,23.4
		c-6-12.4-9.4-26.3-9.4-41c0-24.9,9.7-47.6,25.5-64.4c2.9,10.1,6.9,19.5,12,28.1C99.8,123.7,107.4,132.8,116.4,140.7z"/>
	<path class="st7" d="M209.5,196.2c-5.1-11-11.7-20.9-19.6-29.6c-7.6-8.3-16.5-15.4-26.4-21.2c26.1-32.6,63.6-35.3,71.7-35.5
		c5.7,12.1,8.8,25.5,8.8,39.8c0,25.8-10.4,49.1-27.2,66.1C215.1,210.2,212.9,203.5,209.5,196.2z"/>
	<path class="st6" d="M105.6,201c10.9-4.8,20.9-11.3,29.7-19.4c7.8-7.1,13.4-14.2,17-19.4c36.5,20.7,45.2,56.8,47,67.5
		c-14.3,8.8-31.2,13.9-49.3,13.9c-29.2,0-55.3-13.3-72.5-34.2C87.4,207.7,96.8,204.9,105.6,201z"/>
</g>
</svg>
