<?xml version="1.0" encoding="UTF-8" standalone="no"?>
<svg width="509px" height="181px" viewBox="0 0 509 181" version="1.1" xmlns="http://www.w3.org/2000/svg" xmlns:xlink="http://www.w3.org/1999/xlink">
    <!-- Generator: Sketch 43.2 (39069) - http://www.bohemiancoding.com/sketch -->
    <title>invotra-enabling-evolution</title>
    <desc>Created with Sketch.</desc>
    <defs></defs>
    <g id="Approved-Combined-Mark" stroke="none" stroke-width="1" fill="none" fill-rule="evenodd">
        <g id="invotra-enabling-evolution">
            <g id="Group-2" transform="translate(2.000000, 0.000000)">
                <g id="Group" transform="translate(0.171141, 0.055556)">
                    <g id="brand-logo" transform="translate(0.257718, 0.000000)">
                        <path d="M135.681013,24.7466667 C138.886076,23.8933333 142.945823,23.04 147.967089,22.1866667 C152.988354,21.3333333 158.650633,21.0133333 164.740253,21.0133333 C170.509367,21.0133333 175.316962,21.76 179.163038,23.36 C183.009114,24.96 186.107342,27.2 188.457722,29.9733333 C190.808101,32.8533333 192.410633,36.2666667 193.372152,40.2133333 C194.333671,44.2666667 194.761013,48.64 194.761013,53.44 L194.761013,93.2266667 L178.41519,93.2266667 L178.41519,56 C178.41519,52.16 178.201519,48.96 177.667342,46.2933333 C177.133165,43.6266667 176.385316,41.4933333 175.210127,39.7866667 C174.034937,38.08 172.539241,36.9066667 170.616203,36.16 C168.693165,35.4133333 166.342785,34.9866667 163.565063,34.9866667 C161.53519,34.9866667 159.291646,35.0933333 157.048101,35.4133333 C154.804557,35.7333333 153.09519,35.9466667 152.026835,36.0533333 L152.026835,93.12 L135.681013,93.12 L135.681013,24.7466667 L135.681013,24.7466667 Z" id="Shape" fill="#333333"></path>
                        <path d="M221.149367,93.2266667 C216.662278,83.9466667 211.961519,73.28 207.260759,61.2266667 C202.453165,49.1733333 198.179747,36.2666667 194.333671,22.5066667 L211.747848,22.5066667 C212.709367,26.4533333 213.884557,30.72 215.166582,35.3066667 C216.448608,39.8933333 217.837468,44.3733333 219.333165,48.96 C220.828861,53.5466667 222.324557,57.92 223.927089,62.1866667 C225.52962,66.4533333 227.025316,70.2933333 228.307342,73.7066667 C229.696203,70.2933333 231.085063,66.4533333 232.687595,62.1866667 C234.183291,57.92 235.785823,53.44 237.281519,48.96 C238.777215,44.3733333 240.166076,39.8933333 241.554937,35.3066667 C242.943797,30.72 244.118987,26.4533333 245.080506,22.5066667 L261.960506,22.5066667 C258.11443,36.2666667 253.734177,49.28 249.033418,61.2266667 C244.225823,73.28 239.631899,83.9466667 235.14481,93.2266667 L221.149367,93.2266667 L221.149367,93.2266667 Z" id="Shape" fill="#333333"></path>
                        <path d="M331.617215,57.7066667 C331.617215,63.2533333 330.762532,68.3733333 329.053165,72.96 C327.343797,77.5466667 324.886582,81.4933333 321.681519,84.6933333 C318.476456,87.8933333 314.737215,90.4533333 310.250127,92.2666667 C305.763038,94.08 300.848608,94.9333333 295.506835,94.9333333 C290.165063,94.9333333 285.250633,94.08 280.87038,92.2666667 C276.490127,90.4533333 272.644051,87.8933333 269.545823,84.6933333 C266.340759,81.4933333 263.883544,77.5466667 262.174177,72.96 C260.357975,68.3733333 259.503291,63.2533333 259.503291,57.7066667 C259.503291,52.16 260.357975,47.04 262.174177,42.4533333 C263.99038,37.8666667 266.447595,34.0266667 269.652658,30.72 C272.857722,27.52 276.703797,24.96 281.084051,23.2533333 C285.464304,21.5466667 290.378734,20.5866667 295.613671,20.5866667 C300.848608,20.5866667 305.763038,21.44 310.250127,23.2533333 C314.737215,24.96 318.476456,27.52 321.681519,30.72 C324.886582,33.92 327.343797,37.8666667 329.053165,42.4533333 C330.762532,47.04 331.617215,52.16 331.617215,57.7066667 L331.617215,57.7066667 Z M313.882532,57.7066667 C313.882532,50.6666667 312.28,45.12 309.074937,40.96 C305.869873,36.9066667 301.382785,34.7733333 295.613671,34.7733333 C289.844557,34.7733333 285.357468,36.8 282.152405,40.96 C278.947342,45.0133333 277.34481,50.6666667 277.34481,57.7066667 C277.34481,64.8533333 278.947342,70.5066667 282.152405,74.6666667 C285.357468,78.8266667 289.844557,80.8533333 295.613671,80.8533333 C301.382785,80.8533333 305.869873,78.8266667 309.074937,74.6666667 C312.173165,70.5066667 313.882532,64.8533333 313.882532,57.7066667 L313.882532,57.7066667 Z" id="Shape" fill="#333333"></path>
                        <path d="M479.584304,37.2266667 C478.622785,33.7066667 477.447595,30.8266667 475.310886,28.3733333 C473.067342,25.92 470.396456,24 466.657215,22.72 C462.917975,21.3333333 458.537722,20.6933333 453.089114,20.6933333 C448.602025,20.6933333 444.221772,21.0133333 440.268861,21.76 C436.52962,22.4 435.781772,23.1466667 431.508354,23.7866667 L431.508354,23.7866667 C429.798987,23.36 428.623797,22.8266667 427.341772,22.5066667 C425.952911,22.1866667 424.670886,21.9733333 423.17519,21.6533333 C421.679494,21.44 420.290633,21.2266667 418.901772,21.12 C417.406076,21.0133333 416.230886,20.9066667 415.162532,20.9066667 C409.393418,20.9066667 404.372152,21.44 399.564557,22.5066667 C394.863797,23.5733333 392.192911,24.64 387.919494,25.8133333 L387.919494,76.9066667 C383.218734,78.1866667 380.654684,78.9333333 378.197468,79.4666667 C375.847089,80.1066667 370.612152,80.7466667 367.620759,80.7466667 C363.240506,80.7466667 359.180759,79.5733333 357.364557,77.12 C355.548354,74.6666667 353.625316,70.6133333 353.625316,64.96 L353.625316,35.0933333 L378.197468,35.0933333 L378.197468,20.5866667 L353.518481,20.5866667 L353.518481,1.06666667 L338.027342,3.94666667 L338.027342,65.28 C338.027342,69.9733333 338.668354,74.1333333 339.523038,77.76 C340.377722,81.3866667 342.621266,84.3733333 344.544304,86.9333333 C346.574177,89.4933333 349.245063,91.52 352.663797,92.8 C356.082532,94.1866667 360.249114,94.8266667 365.377215,94.8266667 C369.543797,94.8266667 373.283038,94.4 376.381266,93.5466667 C378.517975,92.9066667 381.616203,92.48 388.026329,89.8133333 L387.812658,93.8666667 L404.372152,93.8666667 L404.372152,36.48 C404.372152,36.16 406.402025,35.9466667 408.431899,35.52 C410.461772,35.2 412.277975,34.9866667 414.094177,34.9866667 C417.299241,34.9866667 419.970127,35.2 422.320506,35.7333333 C424.670886,36.2666667 428.623797,38.1866667 431.187848,40.32 C433.431392,37.5466667 438.452658,35.7333333 441.123544,35.2 C444.328608,34.6666667 447.747342,34.3466667 451.486582,34.3466667 C454.264304,34.3466667 456.614684,34.6666667 458.430886,35.4133333 C460.247089,36.16 461.742785,37.12 462.917975,38.5066667 C464.093165,39.7866667 464.520506,41.28 464.947848,42.9866667 C465.37519,44.6933333 465.268354,46.5066667 465.268354,48.4266667 L465.268354,51.2 C465.268354,50.6666667 461.208608,50.24 459.178734,50.0266667 C457.148861,49.8133333 455.439494,49.7066667 453.623291,49.7066667 C449.777215,49.7066667 446.14481,50.1333333 442.512405,50.88 C438.986835,51.6266667 435.888608,52.9066667 433.110886,54.72 C430.44,56.4266667 428.303291,58.7733333 426.700759,61.5466667 C425.098228,64.32 424.35038,67.7333333 424.35038,71.7866667 C424.35038,76.0533333 425.098228,79.5733333 426.487089,82.4533333 C427.875949,85.3333333 429.798987,87.68 432.256203,89.4933333 C434.713418,91.3066667 437.70481,92.5866667 441.23038,93.44 C444.755949,94.2933333 448.602025,94.6133333 452.875443,94.6133333 C459.28557,94.6133333 464.2,94.1866667 469.328101,93.44 C474.456203,92.6933333 479.90481,92.0533333 479.90481,91.52 L479.90481,48.64 C480.118481,44.48 480.545823,40.7466667 479.584304,37.2266667 L479.584304,37.2266667 Z M465.37519,80.8533333 C465.37519,81.3866667 459.28557,81.7066667 454.157468,81.7066667 C449.990886,81.7066667 446.892658,80.96 444.435443,79.4666667 C441.978228,77.9733333 440.909873,75.3066667 440.909873,71.4666667 C440.909873,69.44 441.444051,67.84 442.298734,66.56 C443.153418,65.28 444.435443,64.2133333 445.931139,63.4666667 C447.426835,62.72 449.136203,62.2933333 450.952405,61.9733333 C452.768608,61.6533333 454.58481,61.5466667 456.401013,61.5466667 C458.430886,61.5466667 460.033418,61.6533333 461.742785,61.9733333 C463.452152,62.2933333 465.37519,62.5066667 465.37519,62.8266667 L465.37519,80.8533333 L465.37519,80.8533333 Z" id="Shape" fill="#333333"></path>
                        <path d="M110.681519,31.68 L110.681519,93.2266667 L126.813671,93.2266667 L126.813671,26.6666667 C122.647089,27.7333333 117.198481,29.3333333 110.681519,31.68 L110.681519,31.68 Z" id="Shape" fill="#333333"></path>
                        <path d="M504.263291,84.3733333 C504.263291,85.76 504.04962,87.04 503.515443,88.2133333 C503.088101,89.3866667 502.447089,90.24 501.592405,91.0933333 C500.844557,91.84 499.883038,92.48 498.921519,92.9066667 C497.853165,93.3333333 496.78481,93.5466667 495.716456,93.5466667 C494.648101,93.5466667 493.472911,93.3333333 492.511392,92.9066667 C491.443038,92.48 490.588354,91.9466667 489.840506,91.0933333 C489.092658,90.3466667 488.451646,89.3866667 487.917468,88.2133333 C487.490127,87.04 487.16962,85.8666667 487.16962,84.3733333 C487.16962,82.9866667 487.383291,81.7066667 487.917468,80.5333333 C488.34481,79.36 488.985823,78.5066667 489.840506,77.6533333 C490.588354,76.9066667 491.549873,76.2666667 492.511392,75.84 C493.579747,75.4133333 494.648101,75.2 495.716456,75.2 C496.78481,75.2 497.96,75.4133333 498.921519,75.84 C499.989873,76.2666667 500.844557,76.8 501.592405,77.6533333 C502.340253,78.4 502.981266,79.36 503.515443,80.5333333 C504.04962,81.7066667 504.263291,82.9866667 504.263291,84.3733333 L504.263291,84.3733333 Z M502.447089,84.3733333 C502.447089,83.3066667 502.233418,82.24 501.912911,81.3866667 C501.592405,80.4266667 501.165063,79.68 500.524051,79.04 C499.883038,78.4 499.242025,77.8666667 498.387342,77.5466667 C497.532658,77.2266667 496.677975,77.0133333 495.716456,77.0133333 C494.754937,77.0133333 493.793418,77.2266667 493.04557,77.5466667 C492.190886,77.8666667 491.549873,78.4 490.908861,79.04 C490.267848,79.68 489.840506,80.4266667 489.52,81.3866667 C489.199494,82.3466667 488.985823,83.3066667 488.985823,84.3733333 C488.985823,85.44 489.199494,86.5066667 489.52,87.36 C489.840506,88.32 490.267848,89.0666667 490.908861,89.7066667 C491.549873,90.3466667 492.190886,90.88 493.04557,91.2 C493.900253,91.52 494.754937,91.7333333 495.716456,91.7333333 C496.677975,91.7333333 497.639494,91.52 498.387342,91.2 C499.242025,90.88 499.883038,90.3466667 500.524051,89.7066667 C501.165063,89.0666667 501.592405,88.32 501.912911,87.36 C502.340253,86.5066667 502.447089,85.44 502.447089,84.3733333 L502.447089,84.3733333 Z M498.280506,89.3866667 C497.853165,88.64 497.425823,87.8933333 496.998481,87.2533333 C496.571139,86.6133333 496.143797,86.08 495.716456,85.6533333 L494.007089,85.6533333 L494.007089,89.3866667 L492.190886,89.3866667 L492.190886,79.68 C492.618228,79.5733333 493.152405,79.4666667 493.579747,79.4666667 C494.113924,79.4666667 494.541266,79.36 494.968608,79.36 C496.357468,79.36 497.532658,79.5733333 498.280506,80.1066667 C499.028354,80.64 499.455696,81.4933333 499.455696,82.56 C499.455696,83.2 499.242025,83.7333333 498.921519,84.16 C498.601013,84.5866667 498.173671,85.0133333 497.532658,85.2266667 C497.746329,85.44 497.853165,85.6533333 498.066835,85.9733333 C498.280506,86.2933333 498.494177,86.6133333 498.707848,86.9333333 C498.921519,87.2533333 499.13519,87.68 499.455696,88.1066667 C499.669367,88.5333333 499.883038,88.8533333 500.096709,89.28 L498.280506,89.3866667 L498.280506,89.3866667 Z M494.007089,84.16 L494.968608,84.16 C495.716456,84.16 496.357468,84.0533333 496.891646,83.84 C497.425823,83.6266667 497.639494,83.2 497.639494,82.56 C497.639494,81.92 497.425823,81.4933333 496.891646,81.28 C496.464304,81.0666667 495.823291,80.96 495.182278,80.96 L494.648101,80.96 L494.113924,80.96 L494.007089,84.16 L494.007089,84.16 Z" id="Shape" fill="#333333"></path>
                        <path d="M73.075443,20.5866667 C67.3063291,22.5066667 61.964557,25.1733333 57.156962,28.5866667 C52.3493671,32 48.1827848,36.16 44.6572152,40.8533333 C42.4136709,39.68 39.5291139,37.76 36.5377215,35.0933333 C28.6318987,28.16 23.5037975,18.9866667 21.3670886,8 C28.7387342,3.2 37.6060759,0.426666667 47.1144304,0.426666667 C61.964557,0.426666667 75.2121519,7.25333333 83.8658228,18.0266667 C80.9812658,18.56 77.2420253,19.3066667 73.075443,20.5866667 L73.075443,20.5866667 Z" id="Shape" fill="#4BA983"></path>
                        <path d="M30.2344304,43.0933333 C33.4394937,45.8666667 36.5377215,47.8933333 39.1017722,49.3866667 C37.6060759,51.4133333 35.4693671,53.9733333 32.5848101,56.5333333 C24.8926582,63.36 15.4911392,67.3066667 4.59392405,68.2666667 C1.60253165,61.9733333 0,55.04 0,47.5733333 C0,35.0933333 4.91443038,23.68 12.8202532,15.2533333 C14.2091139,20.2666667 16.2389873,25.0666667 18.9098734,29.3333333 C21.9012658,34.56 25.7473418,39.1466667 30.2344304,43.0933333 L30.2344304,43.0933333 Z" id="Shape" fill="#6FBA9B"></path>
                        <path d="M77.0283544,70.9333333 C74.4643038,65.3866667 71.1524051,60.48 67.1994937,56.1066667 C63.3534177,51.9466667 58.8663291,48.32 53.9518987,45.44 C66.9858228,29.12 85.8956962,27.7333333 89.955443,27.6266667 C92.84,33.7066667 94.3356962,40.4266667 94.3356962,47.5733333 C94.3356962,60.48 89.1007595,72.2133333 80.6607595,80.7466667 C79.9129114,77.9733333 78.7377215,74.56 77.0283544,70.9333333 L77.0283544,70.9333333 Z" id="Shape" fill="#6FBA9B"></path>
                        <path d="M24.8926582,73.3866667 C30.3412658,70.9333333 35.3625316,67.7333333 39.8496203,63.68 C43.8025316,60.16 46.5802532,56.5333333 48.3964557,53.9733333 C66.7721519,64.32 71.0455696,82.4533333 72.0070886,87.7866667 C64.8491139,92.2666667 56.3022785,94.8266667 47.2212658,94.8266667 C32.5848101,94.8266667 19.4440506,88.1066667 10.7903797,77.6533333 C15.7048101,76.6933333 20.4055696,75.3066667 24.8926582,73.3866667 L24.8926582,73.3866667 Z" id="Shape" fill="#4BA983"></path>
                        <path d="M128.629873,9.70666667 C128.629873,12.5866667 127.668354,14.8266667 125.745316,16.5333333 C123.822278,18.24 121.471899,19.0933333 118.801013,19.0933333 C116.023291,19.0933333 113.672911,18.24 111.749873,16.5333333 C109.826835,14.8266667 108.865316,12.5866667 108.865316,9.70666667 C108.865316,6.72 109.826835,4.48 111.749873,2.77333333 C113.672911,1.06666667 116.023291,0.213333333 118.801013,0.213333333 C121.471899,0.213333333 123.715443,1.06666667 125.745316,2.77333333 C127.561519,4.37333333 128.629873,6.72 128.629873,9.70666667 L128.629873,9.70666667 Z" id="Shape" fill="#333333"></path>
                    </g>
                    <path d="M6.5248,165.41999 C4.6047904,164.344785 3.11680528,162.828 2.0608,160.86959 C1.00479472,158.91118 0.4768,156.645603 0.4768,154.07279 C0.4768,150.885574 1.16799309,147.852005 2.5504,144.97199 C3.93280691,142.091976 5.89118733,139.768799 8.4256,138.00239 C10.9600127,136.235981 13.8975833,135.35279 17.2384,135.35279 C21.0016188,135.35279 23.9583892,136.456779 26.1088,138.66479 C28.2592108,140.872801 29.3344,143.95437 29.3344,147.90959 C29.3344,149.099996 29.2576008,150.213585 29.104,151.25039 C28.9887994,151.903193 28.5856035,152.22959 27.8944,152.22959 L6.064,152.22959 C5.75679846,152.22959 5.54560058,152.421588 5.4304,152.80559 C5.31519942,153.189592 5.2576,153.861585 5.2576,154.82159 C5.2576,157.394403 6.05439203,159.458382 7.648,161.01359 C9.24160797,162.568798 11.2863875,163.34639 13.7824,163.34639 C17.7376198,163.34639 20.9823873,161.733606 23.5168,158.50799 C23.6704008,158.354389 23.8239992,158.27759 23.9776,158.27759 C24.1312008,158.27759 24.2847992,158.33519 24.4384,158.45039 L26.6272,159.65999 C27.0496021,159.928791 27.1264013,160.255188 26.8576,160.63919 C24.9759906,162.904801 22.9504108,164.536785 20.7808,165.53519 C18.6111892,166.533595 16.1056142,167.03279 13.264,167.03279 C10.6911871,167.03279 8.4448096,166.495195 6.5248,165.41999 Z M23.5168,149.17679 C23.9392021,149.17679 24.2559989,148.994392 24.4672,148.62959 C24.6784011,148.264788 24.784,147.583195 24.784,146.58479 C24.784,144.280779 24.1024068,142.408797 22.7392,140.96879 C21.3759932,139.528783 19.5232117,138.80879 17.1808,138.80879 C15.18399,138.80879 13.3792081,139.298385 11.7664,140.27759 C10.1535919,141.256795 8.8576049,142.543182 7.8784,144.13679 C6.8991951,145.730398 6.29440115,147.410381 6.064,149.17679 L23.5168,149.17679 Z M33.6448,165.53519 L37.7344,136.50479 C37.7728002,136.274389 37.8303996,136.120791 37.9072,136.04399 C37.9840004,135.96719 38.118399,135.92879 38.3104,135.92879 L41.9392,135.92879 C42.3616021,135.92879 42.5152006,136.139988 42.4,136.56239 L41.9392,139.84559 L41.9392,140.07599 C41.9392,140.306391 42.0927985,140.287191 42.4,140.01839 C44.3584098,138.482382 46.2303911,137.320794 48.016,136.53359 C49.8016089,135.746386 51.6543904,135.35279 53.5744,135.35279 C56.2240132,135.35279 58.2687928,136.015183 59.7088,137.33999 C61.1488072,138.664797 61.8688,140.440779 61.8688,142.66799 C61.8688,142.975192 61.8304004,143.474387 61.7536,144.16559 L58.7008,165.70799 C58.6623998,166.015192 58.5856006,166.21679 58.4704,166.31279 C58.3551994,166.408791 58.1440015,166.45679 57.8368,166.45679 L54.496,166.45679 C53.9967975,166.45679 53.8047994,166.149593 53.92,165.53519 L56.8,145.08719 C56.8768004,144.472787 56.9152,143.992792 56.9152,143.64719 C56.9152,140.651975 55.2256169,139.15439 51.8464,139.15439 C50.1951917,139.15439 48.6400073,139.519186 47.1808,140.24879 C45.7215927,140.978394 43.8592113,142.207181 41.5936,143.93519 L38.4832,165.76559 C38.4447998,166.034391 38.3584007,166.21679 38.224,166.31279 C38.0895993,166.408791 37.8688015,166.45679 37.5616,166.45679 L34.2784,166.45679 C33.7791975,166.45679 33.5679996,166.149593 33.6448,165.53519 Z M74.5312,167.03279 C71.8047863,167.03279 69.6640078,166.379997 68.1088,165.07439 C66.5535922,163.768784 65.776,162.002401 65.776,159.77519 C65.776,156.050371 67.3887839,153.275999 70.6144,151.45199 C73.8400161,149.627981 77.7567769,148.581591 82.3648,148.31279 L86.9152,147.96719 C87.2608017,147.92879 87.5391989,147.823191 87.7504,147.65039 C87.961601,147.477589 88.0863998,147.256791 88.1248,146.98799 L88.3552,145.43279 C88.4320004,144.818387 88.4704,144.395991 88.4704,144.16559 C88.4704,142.475982 87.9232055,141.160795 86.8288,140.21999 C85.7343945,139.279185 84.2272096,138.80879 82.3072,138.80879 C78.8127825,138.80879 75.7984127,140.383174 73.264,143.53199 C73.1487994,143.685591 73.0336006,143.77199 72.9184,143.79119 C72.8031994,143.81039 72.6496009,143.781591 72.4576,143.70479 L69.52,142.66799 C69.2895988,142.59119 69.1744,142.437591 69.1744,142.20719 C69.1744,142.015189 69.2511992,141.784791 69.4048,141.51599 C70.8256071,139.55758 72.6591887,138.040795 74.9056,136.96559 C77.1520112,135.890385 79.7343854,135.35279 82.6528,135.35279 C86.0704171,135.35279 88.6719911,136.082383 90.4576,137.54159 C92.2432089,139.000797 93.136,141.016777 93.136,143.58959 C93.136,143.973592 93.0976004,144.549586 93.0208,145.31759 L90.1984,165.76559 C90.1599998,166.072792 90.0928005,166.26479 89.9968,166.34159 C89.9007995,166.418391 89.6992015,166.45679 89.392,166.45679 L86.512,166.45679 C86.0127975,166.45679 85.7632,166.149593 85.7632,165.53519 L86.0512,162.77039 C86.0512,162.539989 85.9936006,162.42479 85.8784,162.42479 C85.7631994,162.42479 85.5520015,162.578389 85.2448,162.88559 C82.1343844,165.650404 78.5632201,167.03279 74.5312,167.03279 Z M87.4336,151.65359 L87.4912,151.30799 C87.4912,151.000789 87.2800021,150.86639 86.8576,150.90479 L82.8832,151.25039 C79.6575839,151.480791 76.8160123,152.171984 74.3584,153.32399 C71.9007877,154.475996 70.672,156.395977 70.672,159.08399 C70.672,160.427997 71.171195,161.493586 72.1696,162.28079 C73.168005,163.067994 74.5503911,163.46159 76.3168,163.46159 C77.5840063,163.46159 78.8223939,163.240792 80.032,162.79919 C81.241606,162.357588 82.345595,161.771994 83.344,161.04239 C84.342405,160.312786 85.1487969,159.544794 85.7632,158.73839 C86.3776031,157.931986 86.7231996,157.183194 86.8,156.49199 L87.4336,151.65359 Z M99.232,166.45679 C98.5791967,166.45679 98.3103994,166.091994 98.4256,165.36239 L104.1856,124.35119 C104.224,124.082389 104.291199,123.909591 104.3872,123.83279 C104.4832,123.75599 104.627199,123.71759 104.8192,123.71759 L108.5056,123.71759 C108.889602,123.71759 109.0432,124.024787 108.9664,124.63919 L107.008,138.63599 C107.008,138.67439 106.9984,138.72239 106.9792,138.77999 C106.96,138.83759 106.9696,138.88559 107.008,138.92399 C107.008,139.077591 107.0464,139.15439 107.1232,139.15439 C107.1616,139.15439 107.353598,139.019991 107.6992,138.75119 C109.120007,137.791185 110.540793,136.984793 111.9616,136.33199 C113.382407,135.679187 115.167989,135.35279 117.3184,135.35279 C120.812817,135.35279 123.443191,136.456779 125.2096,138.66479 C126.976009,140.872801 127.8592,143.819972 127.8592,147.50639 C127.8592,150.732006 127.292806,153.832775 126.16,156.80879 C125.027194,159.784805 123.299212,162.232781 120.976,164.15279 C118.652788,166.0728 115.801617,167.03279 112.4224,167.03279 C110.118388,167.03279 108.256007,166.552795 106.8352,165.59279 C105.414393,164.632785 104.358403,163.576796 103.6672,162.42479 C103.551999,162.271189 103.456,162.19439 103.3792,162.19439 C103.187199,162.19439 103.033601,162.386388 102.9184,162.77039 L102.2272,165.65039 C102.1504,165.957592 102.054401,166.16879 101.9392,166.28399 C101.823999,166.399191 101.574402,166.45679 101.1904,166.45679 L99.232,166.45679 Z M104.5312,156.26159 C104.4928,156.453591 104.4736,156.760788 104.4736,157.18319 C104.4736,159.026399 105.164793,160.552784 106.5472,161.76239 C107.929607,162.971996 109.58079,163.57679 111.5008,163.57679 C113.958412,163.57679 116.051191,162.770398 117.7792,161.15759 C119.507209,159.544782 120.793596,157.500003 121.6384,155.02319 C122.483204,152.546378 122.9056,150.040803 122.9056,147.50639 C122.9056,144.703176 122.310406,142.562398 121.12,141.08399 C119.929594,139.605583 118.144012,138.86639 115.7632,138.86639 C114.035191,138.86639 112.364808,139.269586 110.752,140.07599 C109.139192,140.882394 107.699206,141.938384 106.432,143.24399 L104.5312,156.26159 Z M137.4688,165.65039 C137.4304,165.995992 137.353601,166.21679 137.2384,166.31279 C137.123199,166.408791 136.873602,166.45679 136.4896,166.45679 L133.4944,166.45679 C132.841597,166.45679 132.5536,166.130393 132.6304,165.47759 L138.5056,124.35119 C138.544,124.082389 138.6016,123.909591 138.6784,123.83279 C138.7552,123.75599 138.908799,123.71759 139.1392,123.71759 L142.7104,123.71759 C143.171202,123.71759 143.344001,123.986387 143.2288,124.52399 L137.4688,165.65039 Z M156.2944,129.47759 C156.2176,129.861592 156.112001,130.120789 155.9776,130.25519 C155.843199,130.389591 155.584002,130.45679 155.2,130.45679 L151.6864,130.45679 C151.110397,130.45679 150.899199,130.091994 151.0528,129.36239 L151.744,124.58159 C151.8208,124.005587 152.108797,123.71759 152.608,123.71759 L156.352,123.71759 C156.582401,123.71759 156.755199,123.813589 156.8704,124.00559 C156.985601,124.197591 157.0048,124.447189 156.928,124.75439 L156.2944,129.47759 Z M150.9952,165.65039 C150.9568,166.034392 150.880001,166.26479 150.7648,166.34159 C150.649599,166.418391 150.380802,166.45679 149.9584,166.45679 L147.0208,166.45679 C146.367997,166.45679 146.08,166.130393 146.1568,165.47759 L150.2464,136.56239 C150.2848,136.293589 150.3424,136.120791 150.4192,136.04399 C150.496,135.96719 150.649599,135.92879 150.88,135.92879 L154.5088,135.92879 C154.969602,135.92879 155.1616,136.216787 155.0848,136.79279 L150.9952,165.65039 Z M159.6832,165.53519 L163.7728,136.50479 C163.8112,136.274389 163.8688,136.120791 163.9456,136.04399 C164.0224,135.96719 164.156799,135.92879 164.3488,135.92879 L167.9776,135.92879 C168.400002,135.92879 168.553601,136.139988 168.4384,136.56239 L167.9776,139.84559 L167.9776,140.07599 C167.9776,140.306391 168.131198,140.287191 168.4384,140.01839 C170.39681,138.482382 172.268791,137.320794 174.0544,136.53359 C175.840009,135.746386 177.69279,135.35279 179.6128,135.35279 C182.262413,135.35279 184.307193,136.015183 185.7472,137.33999 C187.187207,138.664797 187.9072,140.440779 187.9072,142.66799 C187.9072,142.975192 187.8688,143.474387 187.792,144.16559 L184.7392,165.70799 C184.7008,166.015192 184.624001,166.21679 184.5088,166.31279 C184.393599,166.408791 184.182401,166.45679 183.8752,166.45679 L180.5344,166.45679 C180.035197,166.45679 179.843199,166.149593 179.9584,165.53519 L182.8384,145.08719 C182.9152,144.472787 182.9536,143.992792 182.9536,143.64719 C182.9536,140.651975 181.264017,139.15439 177.8848,139.15439 C176.233592,139.15439 174.678407,139.519186 173.2192,140.24879 C171.759993,140.978394 169.897611,142.207181 167.632,143.93519 L164.5216,165.76559 C164.4832,166.034391 164.396801,166.21679 164.2624,166.31279 C164.127999,166.408791 163.907201,166.45679 163.6,166.45679 L160.3168,166.45679 C159.817597,166.45679 159.6064,166.149593 159.6832,165.53519 Z M193.024,174.57839 C190.681588,173.272784 189.5104,171.487201 189.5104,169.22159 C189.5104,167.647182 190.057594,166.235996 191.152,164.98799 C192.246405,163.739984 193.715191,162.731994 195.5584,161.96399 C195.865601,161.84879 196.0576,161.723991 196.1344,161.58959 C196.2112,161.455189 196.115201,161.330391 195.8464,161.21519 C195.155196,160.792788 194.646402,160.351192 194.32,159.89039 C193.993598,159.429588 193.8304,158.872793 193.8304,158.21999 C193.8304,157.106385 194.310395,156.155994 195.2704,155.36879 C196.230405,154.581586 197.401593,153.938393 198.784,153.43919 C199.091201,153.36239 199.2832,153.237591 199.36,153.06479 C199.4368,152.891989 199.360001,152.767191 199.1296,152.69039 C196.479987,151.269583 195.1552,149.176804 195.1552,146.41199 C195.1552,144.069578 195.779194,142.082398 197.0272,140.45039 C198.275206,138.818382 199.92639,137.579994 201.9808,136.73519 C204.03521,135.890386 206.271988,135.46799 208.6912,135.46799 C212.76162,135.46799 215.75679,136.389581 217.6768,138.23279 C217.792001,138.347991 217.926399,138.40559 218.08,138.40559 C218.310401,138.40559 218.617598,138.213592 219.0016,137.82959 C219.808004,137.176787 220.739195,136.610393 221.7952,136.13039 C222.851205,135.650388 223.801596,135.41039 224.6464,135.41039 C225.529604,135.41039 225.913601,135.717587 225.7984,136.33199 L225.568,138.29039 C225.4912,138.712792 225.385601,138.991189 225.2512,139.12559 C225.116799,139.259991 224.876802,139.32719 224.5312,139.32719 C223.455995,139.32719 222.380805,139.519188 221.3056,139.90319 C220.652797,140.133591 220.211201,140.354389 219.9808,140.56559 C219.750399,140.776791 219.692799,141.035989 219.808,141.34319 C220.153602,142.303195 220.3264,143.224786 220.3264,144.10799 C220.3264,146.373601 219.683206,148.283982 218.3968,149.83919 C217.110394,151.394398 215.43041,152.546386 213.3568,153.29519 C211.28319,154.043994 209.075212,154.41839 206.7328,154.41839 C205.004791,154.41839 203.200009,154.600788 201.3184,154.96559 C199.436791,155.330392 198.496,156.050385 198.496,157.12559 C198.496,157.624793 198.870396,157.999189 199.6192,158.24879 C200.368004,158.498391 201.625591,158.68079 203.392,158.79599 L210.7072,159.19919 C216.65923,159.544792 219.6352,161.963968 219.6352,166.45679 C219.6352,169.989608 218.022416,172.552782 214.7968,174.14639 C211.571184,175.739998 207.654423,176.53679 203.0464,176.53679 C198.707178,176.53679 195.366412,175.883997 193.024,174.57839 Z M213.328,149.46479 C215.036808,148.197584 215.8912,146.277603 215.8912,143.70479 C215.8912,142.053582 215.286406,140.776795 214.0768,139.87439 C212.867194,138.971986 211.091212,138.52079 208.7488,138.52079 C206.214387,138.52079 204.054409,139.221583 202.2688,140.62319 C200.483191,142.024797 199.5904,143.954378 199.5904,146.41199 C199.5904,147.986398 200.223994,149.205586 201.4912,150.06959 C202.758406,150.933594 204.543988,151.36559 206.848,151.36559 C209.459213,151.36559 211.619191,150.731996 213.328,149.46479 Z M211.6576,172.01519 C213.904011,170.997585 215.0272,169.317602 215.0272,166.97519 C215.0272,165.784784 214.643204,164.901593 213.8752,164.32559 C213.107196,163.749587 211.782409,163.403991 209.9008,163.28879 L200.512,162.71279 C198.630391,163.135192 197.065606,163.855185 195.8176,164.87279 C194.569594,165.890395 193.9456,167.147983 193.9456,168.64559 C193.9456,171.909606 197.036769,173.54159 203.2192,173.54159 C206.598417,173.54159 209.411189,173.032795 211.6576,172.01519 Z M245.7664,165.41999 C243.84639,164.344785 242.358405,162.828 241.3024,160.86959 C240.246395,158.91118 239.7184,156.645603 239.7184,154.07279 C239.7184,150.885574 240.409593,147.852005 241.792,144.97199 C243.174407,142.091976 245.132787,139.768799 247.6672,138.00239 C250.201613,136.235981 253.139183,135.35279 256.48,135.35279 C260.243219,135.35279 263.199989,136.456779 265.3504,138.66479 C267.500811,140.872801 268.576,143.95437 268.576,147.90959 C268.576,149.099996 268.499201,150.213585 268.3456,151.25039 C268.230399,151.903193 267.827203,152.22959 267.136,152.22959 L245.3056,152.22959 C244.998398,152.22959 244.7872,152.421588 244.672,152.80559 C244.556799,153.189592 244.4992,153.861585 244.4992,154.82159 C244.4992,157.394403 245.295992,159.458382 246.8896,161.01359 C248.483208,162.568798 250.527987,163.34639 253.024,163.34639 C256.97922,163.34639 260.223987,161.733606 262.7584,158.50799 C262.912001,158.354389 263.065599,158.27759 263.2192,158.27759 C263.372801,158.27759 263.526399,158.33519 263.68,158.45039 L265.8688,159.65999 C266.291202,159.928791 266.368001,160.255188 266.0992,160.63919 C264.217591,162.904801 262.192011,164.536785 260.0224,165.53519 C257.852789,166.533595 255.347214,167.03279 252.5056,167.03279 C249.932787,167.03279 247.68641,166.495195 245.7664,165.41999 Z M262.7584,149.17679 C263.180802,149.17679 263.497599,148.994392 263.7088,148.62959 C263.920001,148.264788 264.0256,147.583195 264.0256,146.58479 C264.0256,144.280779 263.344007,142.408797 261.9808,140.96879 C260.617593,139.528783 258.764812,138.80879 256.4224,138.80879 C254.42559,138.80879 252.620808,139.298385 251.008,140.27759 C249.395192,141.256795 248.099205,142.543182 247.12,144.13679 C246.140795,145.730398 245.536001,147.410381 245.3056,149.17679 L262.7584,149.17679 Z M302.32,136.24559 C302.4352,136.456791 302.4544,136.677589 302.3776,136.90799 L286.5952,165.70799 C286.441599,166.015192 286.268801,166.21679 286.0768,166.31279 C285.884799,166.408791 285.616002,166.45679 285.2704,166.45679 L283.1968,166.45679 C282.812798,166.45679 282.505601,166.370391 282.2752,166.19759 C282.044799,166.024789 281.9104,165.803991 281.872,165.53519 L274.1536,136.67759 L274.1536,136.50479 C274.1536,136.120788 274.364798,135.92879 274.7872,135.92879 L278.3584,135.92879 C278.627201,135.92879 278.838399,136.005589 278.992,136.15919 C279.145601,136.312791 279.2224,136.485589 279.2224,136.67759 L285.0976,159.31439 C285.1744,159.621592 285.270399,159.77519 285.3856,159.77519 C285.577601,159.77519 285.788799,159.525593 286.0192,159.02639 L298.2304,136.38959 C298.3456,136.197589 298.460799,136.07279 298.576,136.01519 C298.6912,135.95759 298.863999,135.92879 299.0944,135.92879 L301.8016,135.92879 C302.032001,135.92879 302.204799,136.034389 302.32,136.24559 Z M305.9104,163.49039 C303.625588,161.128778 302.4832,157.97041 302.4832,154.01519 C302.4832,150.482372 303.241592,147.295204 304.7584,144.45359 C306.275207,141.611976 308.319987,139.384798 310.8928,137.77199 C313.465613,136.159182 316.268785,135.35279 319.3024,135.35279 C323.219219,135.35279 326.310389,136.562378 328.576,138.98159 C330.841611,141.400802 331.9744,144.62637 331.9744,148.65839 C331.9744,152.152808 331.235207,155.291976 329.7568,158.07599 C328.278393,160.860004 326.252813,163.048782 323.68,164.64239 C321.107187,166.235998 318.284815,167.03279 315.2128,167.03279 C311.29598,167.03279 308.195211,165.852002 305.9104,163.49039 Z M321.376,161.50319 C323.142409,160.235984 324.534395,158.431202 325.552,156.08879 C326.569605,153.746378 327.0784,151.020006 327.0784,147.90959 C327.0784,145.106376 326.387207,142.907998 325.0048,141.31439 C323.622393,139.720782 321.683212,138.92399 319.1872,138.92399 C316.998389,138.92399 315.001609,139.576784 313.1968,140.88239 C311.391991,142.187997 309.971205,144.011978 308.9344,146.35439 C307.897595,148.696802 307.3792,151.403975 307.3792,154.47599 C307.3792,157.240804 308.079993,159.419982 309.4816,161.01359 C310.883207,162.607198 312.851187,163.40399 315.3856,163.40399 C317.612811,163.40399 319.609591,162.770396 321.376,161.50319 Z M341.5264,165.65039 C341.488,165.995992 341.4112,166.21679 341.296,166.31279 C341.180799,166.408791 340.931202,166.45679 340.5472,166.45679 L337.552,166.45679 C336.899197,166.45679 336.6112,166.130393 336.688,165.47759 L342.5632,124.35119 C342.6016,124.082389 342.6592,123.909591 342.736,123.83279 C342.8128,123.75599 342.966399,123.71759 343.1968,123.71759 L346.768,123.71759 C347.228802,123.71759 347.4016,123.986387 347.2864,124.52399 L341.5264,165.65039 Z M353.0656,164.95919 C351.548792,163.576783 350.7904,161.752801 350.7904,159.48719 C350.7904,158.872787 350.8096,158.411992 350.848,158.10479 L353.9008,136.67759 C353.9392,136.370389 354.015999,136.168791 354.1312,136.07279 C354.2464,135.97679 354.438399,135.92879 354.7072,135.92879 L357.9328,135.92879 C358.201601,135.92879 358.403199,136.015189 358.5376,136.18799 C358.672001,136.360791 358.72,136.581589 358.6816,136.85039 L355.8592,157.06799 C355.782399,157.682393 355.744,158.104789 355.744,158.33519 C355.744,161.599206 357.395183,163.23119 360.6976,163.23119 C362.310408,163.23119 363.932792,162.789595 365.5648,161.90639 C367.196808,161.023186 368.95359,159.755998 370.8352,158.10479 L373.888,136.61999 C373.9264,136.351189 374.012799,136.168791 374.1472,136.07279 C374.281601,135.97679 374.502398,135.92879 374.8096,135.92879 L377.9776,135.92879 C378.246401,135.92879 378.457599,136.015189 378.6112,136.18799 C378.764801,136.360791 378.8224,136.581589 378.784,136.85039 L374.6368,165.88079 C374.559999,166.111191 374.4928,166.26479 374.4352,166.34159 C374.3776,166.418391 374.233601,166.45679 374.0032,166.45679 L370.6624,166.45679 C370.201598,166.45679 369.9904,166.245592 370.0288,165.82319 L370.4896,162.59759 L370.4896,162.42479 C370.4896,162.271189 370.4512,162.19439 370.3744,162.19439 C370.259199,162.19439 370.105601,162.271189 369.9136,162.42479 C367.647989,164.152799 365.680008,165.352787 364.0096,166.02479 C362.339192,166.696793 360.678408,167.03279 359.0272,167.03279 C356.569588,167.03279 354.582407,166.341597 353.0656,164.95919 Z M386.8384,161.15759 C386.8384,160.351186 386.876799,159.717592 386.9536,159.25679 L389.6608,140.01839 L389.6608,139.90319 C389.6608,139.634389 389.488002,139.49999 389.1424,139.49999 L384.4192,139.49999 C384.111998,139.49999 383.9776,139.269592 384.016,138.80879 L384.3616,136.33199 C384.4,136.178389 384.448,136.07279 384.5056,136.01519 C384.5632,135.95759 384.687999,135.92879 384.88,135.92879 L389.776,135.92879 C389.929601,135.92879 390.063999,135.861591 390.1792,135.72719 C390.2944,135.592789 390.3712,135.448791 390.4096,135.29519 L392.3104,126.13679 C392.4256,125.752788 392.675198,125.56079 393.0592,125.56079 L395.9968,125.56079 C396.380802,125.56079 396.5536,125.867987 396.5152,126.48239 L395.1904,135.46799 L395.1904,135.58319 C395.1904,135.813591 395.324799,135.92879 395.5936,135.92879 L402.7936,135.92879 C403.292802,135.92879 403.504,136.101588 403.4272,136.44719 L403.0816,139.03919 C403.004799,139.231191 402.9376,139.35599 402.88,139.41359 C402.8224,139.47119 402.678401,139.49999 402.448,139.49999 L395.1328,139.49999 C394.787198,139.49999 394.5568,139.730388 394.4416,140.19119 L391.9072,158.39279 C391.830399,158.815192 391.792,159.352787 391.792,160.00559 C391.792,161.119196 392.031997,161.867988 392.512,162.25199 C392.992002,162.635992 393.788794,162.82799 394.9024,162.82799 L398.8768,162.82799 C399.068801,162.82799 399.222399,162.904789 399.3376,163.05839 C399.4528,163.211991 399.5104,163.384789 399.5104,163.57679 L399.1648,165.53519 C399.1264,165.957592 398.934402,166.18799 398.5888,166.22639 C397.475194,166.379991 395.670412,166.45679 393.1744,166.45679 C388.950379,166.45679 386.8384,164.690408 386.8384,161.15759 Z M415.5136,129.47759 C415.436799,129.861592 415.331201,130.120789 415.1968,130.25519 C415.062399,130.389591 414.803202,130.45679 414.4192,130.45679 L410.9056,130.45679 C410.329597,130.45679 410.118399,130.091994 410.272,129.36239 L410.9632,124.58159 C411.04,124.005587 411.327997,123.71759 411.8272,123.71759 L415.5712,123.71759 C415.801601,123.71759 415.974399,123.813589 416.0896,124.00559 C416.2048,124.197591 416.224,124.447189 416.1472,124.75439 L415.5136,129.47759 Z M410.2144,165.65039 C410.176,166.034392 410.0992,166.26479 409.984,166.34159 C409.868799,166.418391 409.600002,166.45679 409.1776,166.45679 L406.24,166.45679 C405.587197,166.45679 405.299199,166.130393 405.376,165.47759 L409.4656,136.56239 C409.504,136.293589 409.561599,136.120791 409.6384,136.04399 C409.7152,135.96719 409.868799,135.92879 410.0992,135.92879 L413.728,135.92879 C414.188802,135.92879 414.3808,136.216787 414.304,136.79279 L410.2144,165.65039 Z M422.3872,163.49039 C420.102388,161.128778 418.96,157.97041 418.96,154.01519 C418.96,150.482372 419.718392,147.295204 421.2352,144.45359 C422.752007,141.611976 424.796787,139.384798 427.3696,137.77199 C429.942413,136.159182 432.745585,135.35279 435.7792,135.35279 C439.696019,135.35279 442.787189,136.562378 445.0528,138.98159 C447.318411,141.400802 448.4512,144.62637 448.4512,148.65839 C448.4512,152.152808 447.712007,155.291976 446.2336,158.07599 C444.755192,160.860004 442.729613,163.048782 440.1568,164.64239 C437.583987,166.235998 434.761615,167.03279 431.6896,167.03279 C427.77278,167.03279 424.672011,165.852002 422.3872,163.49039 Z M437.8528,161.50319 C439.619209,160.235984 441.011195,158.431202 442.0288,156.08879 C443.046405,153.746378 443.5552,151.020006 443.5552,147.90959 C443.5552,145.106376 442.864007,142.907998 441.4816,141.31439 C440.099193,139.720782 438.160012,138.92399 435.664,138.92399 C433.475189,138.92399 431.478409,139.576784 429.6736,140.88239 C427.868791,142.187997 426.448005,144.011978 425.4112,146.35439 C424.374395,148.696802 423.856,151.403975 423.856,154.47599 C423.856,157.240804 424.556793,159.419982 425.9584,161.01359 C427.360007,162.607198 429.327987,163.40399 431.8624,163.40399 C434.089611,163.40399 436.086391,162.770396 437.8528,161.50319 Z M453.1648,165.53519 L457.2544,136.50479 C457.2928,136.274389 457.350399,136.120791 457.4272,136.04399 C457.504,135.96719 457.638399,135.92879 457.8304,135.92879 L461.4592,135.92879 C461.881602,135.92879 462.0352,136.139988 461.92,136.56239 L461.4592,139.84559 L461.4592,140.07599 C461.4592,140.306391 461.612798,140.287191 461.92,140.01839 C463.87841,138.482382 465.750391,137.320794 467.536,136.53359 C469.321609,135.746386 471.17439,135.35279 473.0944,135.35279 C475.744013,135.35279 477.788793,136.015183 479.2288,137.33999 C480.668807,138.664797 481.3888,140.440779 481.3888,142.66799 C481.3888,142.975192 481.3504,143.474387 481.2736,144.16559 L478.2208,165.70799 C478.1824,166.015192 478.1056,166.21679 477.9904,166.31279 C477.875199,166.408791 477.664001,166.45679 477.3568,166.45679 L474.016,166.45679 C473.516797,166.45679 473.324799,166.149593 473.44,165.53519 L476.32,145.08719 C476.3968,144.472787 476.4352,143.992792 476.4352,143.64719 C476.4352,140.651975 474.745617,139.15439 471.3664,139.15439 C469.715192,139.15439 468.160007,139.519186 466.7008,140.24879 C465.241593,140.978394 463.379211,142.207181 461.1136,143.93519 L458.0032,165.76559 C457.9648,166.034391 457.878401,166.21679 457.744,166.31279 C457.609599,166.408791 457.388801,166.45679 457.0816,166.45679 L453.7984,166.45679 C453.299197,166.45679 453.087999,166.149593 453.1648,165.53519 Z" id="enabling-evolution" fill="#333333"></path>
                </g>
            </g>
        </g>
    </g>
</svg>