<?xml version="1.0" encoding="utf-8"?>
<!-- Generator: Adobe Illustrator 22.0.1, SVG Export Plug-In . SVG Version: 6.00 Build 0)  -->
<svg version="1.1" id="Layer_1" xmlns="http://www.w3.org/2000/svg" xmlns:xlink="http://www.w3.org/1999/xlink" x="0px" y="0px"
	 viewBox="0 0 340 125.5" style="enable-background:new 0 0 340 125.5;" xml:space="preserve">
<style type="text/css">
	.st0{fill:#FFFFFF;}
	.st1{fill:#4BB88B;}
	.st2{fill:#6FC6A2;}
</style>
<g>
	<g>
		<g>
			<path class="st0" d="M8,113c-1.2-0.7-2.1-1.6-2.8-2.8c-0.7-1.2-1-2.6-1-4.2c0-2,0.4-3.9,1.3-5.7c0.9-1.8,2.1-3.3,3.7-4.4
				s3.4-1.7,5.5-1.7c2.4,0,4.2,0.7,5.5,2.1c1.3,1.4,2,3.3,2,5.8c0,0.7,0,1.4-0.1,2.1c-0.1,0.4-0.3,0.6-0.8,0.6H7.7
				c-0.2,0-0.3,0.1-0.4,0.4c-0.1,0.2-0.1,0.7-0.1,1.3c0,1.6,0.5,2.9,1.5,3.9c1,1,2.3,1.5,3.8,1.5c2.5,0,4.5-1,6.1-3
				c0.1-0.1,0.2-0.1,0.3-0.1c0.1,0,0.2,0,0.3,0.1l1.4,0.8c0.3,0.2,0.3,0.4,0.1,0.6c-1.2,1.4-2.4,2.4-3.8,3.1
				c-1.4,0.6-2.9,0.9-4.7,0.9C10.6,114.1,9.2,113.7,8,113z M18.6,102.9c0.3,0,0.5-0.1,0.6-0.3c0.1-0.2,0.2-0.7,0.2-1.3
				c0-1.4-0.4-2.6-1.3-3.5c-0.9-0.9-2-1.3-3.5-1.3c-1.2,0-2.4,0.3-3.4,0.9c-1,0.6-1.8,1.4-2.4,2.4c-0.6,1-1,2-1.1,3.2H18.6z"/>
			<path class="st0" d="M25.8,113.1L28.4,95c0-0.1,0.1-0.2,0.1-0.3c0,0,0.1-0.1,0.3-0.1H31c0.3,0,0.4,0.1,0.3,0.4L31,97.1v0.1
				c0,0.1,0.1,0.1,0.3,0c1.2-1,2.4-1.7,3.5-2.2c1.1-0.5,2.3-0.7,3.5-0.7c1.7,0,2.9,0.4,3.8,1.2c0.9,0.8,1.4,1.9,1.4,3.3
				c0,0.2,0,0.5-0.1,0.9l-1.9,13.5c0,0.2-0.1,0.3-0.1,0.4c-0.1,0.1-0.2,0.1-0.4,0.1h-2.1c-0.3,0-0.4-0.2-0.4-0.6l1.8-12.8
				c0-0.4,0.1-0.7,0.1-0.9c0-1.9-1.1-2.8-3.2-2.8c-1,0-2,0.2-2.9,0.7c-0.9,0.5-2.1,1.2-3.5,2.3l-1.9,13.6c0,0.2-0.1,0.3-0.2,0.3
				c-0.1,0.1-0.2,0.1-0.4,0.1h-2.1C25.9,113.7,25.8,113.5,25.8,113.1z"/>
			<path class="st0" d="M52.2,114.1c-1.7,0-3-0.4-4-1.2c-1-0.8-1.5-1.9-1.5-3.3c0-2.3,1-4.1,3-5.2c2-1.1,4.5-1.8,7.3-2l2.8-0.2
				c0.2,0,0.4-0.1,0.5-0.2c0.1-0.1,0.2-0.2,0.2-0.4l0.1-1c0-0.4,0.1-0.6,0.1-0.8c0-1.1-0.3-1.9-1-2.5c-0.7-0.6-1.6-0.9-2.8-0.9
				c-2.2,0-4.1,1-5.7,3c-0.1,0.1-0.1,0.2-0.2,0.2c-0.1,0-0.2,0-0.3-0.1l-1.8-0.6c-0.1,0-0.2-0.1-0.2-0.3c0-0.1,0-0.3,0.1-0.4
				c0.9-1.2,2-2.2,3.4-2.8c1.4-0.7,3-1,4.8-1c2.1,0,3.8,0.5,4.9,1.4s1.7,2.2,1.7,3.8c0,0.2,0,0.6-0.1,1.1L62,113.3
				c0,0.2-0.1,0.3-0.1,0.4c-0.1,0-0.2,0.1-0.4,0.1h-1.8c-0.3,0-0.5-0.2-0.5-0.6l0.2-1.7c0-0.1,0-0.2-0.1-0.2c-0.1,0-0.2,0.1-0.4,0.3
				C57,113.2,54.8,114.1,52.2,114.1z M60.3,104.4l0-0.2c0-0.2-0.1-0.3-0.4-0.3l-2.5,0.2c-2,0.1-3.8,0.6-5.3,1.3
				c-1.5,0.7-2.3,1.9-2.3,3.6c0,0.8,0.3,1.5,0.9,2s1.5,0.7,2.6,0.7c0.8,0,1.6-0.1,2.3-0.4c0.8-0.3,1.4-0.6,2.1-1.1
				c0.6-0.5,1.1-0.9,1.5-1.4c0.4-0.5,0.6-1,0.6-1.4L60.3,104.4z"/>
			<path class="st0" d="M68.5,113.7c-0.4,0-0.6-0.2-0.5-0.7l3.6-25.6c0-0.2,0.1-0.3,0.1-0.3c0.1,0,0.1-0.1,0.3-0.1h2.3
				c0.2,0,0.3,0.2,0.3,0.6l-1.2,8.7c0,0,0,0.1,0,0.1c0,0,0,0.1,0,0.1c0,0.1,0,0.1,0.1,0.1c0,0,0.1-0.1,0.4-0.3
				c0.9-0.6,1.8-1.1,2.7-1.5c0.9-0.4,2-0.6,3.3-0.6c2.2,0,3.8,0.7,4.9,2.1c1.1,1.4,1.7,3.2,1.7,5.5c0,2-0.4,4-1.1,5.8
				s-1.8,3.4-3.2,4.6c-1.5,1.2-3.2,1.8-5.3,1.8c-1.4,0-2.6-0.3-3.5-0.9c-0.9-0.6-1.5-1.3-2-2c-0.1-0.1-0.1-0.1-0.2-0.1
				c-0.1,0-0.2,0.1-0.3,0.4l-0.4,1.8c0,0.2-0.1,0.3-0.2,0.4c-0.1,0.1-0.2,0.1-0.5,0.1H68.5z M71.8,107.3c0,0.1,0,0.3,0,0.6
				c0,1.2,0.4,2.1,1.3,2.9c0.9,0.8,1.9,1.1,3.1,1.1c1.5,0,2.8-0.5,3.9-1.5s1.9-2.3,2.4-3.8c0.5-1.5,0.8-3.1,0.8-4.7
				c0-1.8-0.4-3.1-1.1-4c-0.7-0.9-1.9-1.4-3.3-1.4c-1.1,0-2.1,0.3-3.1,0.8c-1,0.5-1.9,1.2-2.7,2L71.8,107.3z"/>
			<path class="st0" d="M93.2,113.2c0,0.2-0.1,0.4-0.1,0.4c-0.1,0.1-0.2,0.1-0.5,0.1h-1.9c-0.4,0-0.6-0.2-0.5-0.6l3.7-25.7
				c0-0.2,0.1-0.3,0.1-0.3c0,0,0.1-0.1,0.3-0.1h2.2c0.3,0,0.4,0.2,0.3,0.5L93.2,113.2z"/>
			<path class="st0" d="M102.5,113.2c0,0.2-0.1,0.4-0.1,0.4c-0.1,0-0.2,0.1-0.5,0.1H100c-0.4,0-0.6-0.2-0.5-0.6L102,95
				c0-0.2,0.1-0.3,0.1-0.3c0,0,0.1-0.1,0.3-0.1h2.3c0.3,0,0.4,0.2,0.4,0.5L102.5,113.2z M105.8,90.6c0,0.2-0.1,0.4-0.2,0.5
				c-0.1,0.1-0.2,0.1-0.5,0.1h-2.2c-0.4,0-0.5-0.2-0.4-0.7l0.4-3c0-0.4,0.2-0.5,0.5-0.5h2.3c0.1,0,0.3,0.1,0.3,0.2s0.1,0.3,0,0.5
				L105.8,90.6z"/>
			<path class="st0" d="M108.8,113.1l2.6-18.1c0-0.1,0.1-0.2,0.1-0.3c0,0,0.1-0.1,0.3-0.1h2.3c0.3,0,0.4,0.1,0.3,0.4l-0.3,2.1v0.1
				c0,0.1,0.1,0.1,0.3,0c1.2-1,2.4-1.7,3.5-2.2c1.1-0.5,2.3-0.7,3.5-0.7c1.7,0,2.9,0.4,3.8,1.2c0.9,0.8,1.4,1.9,1.4,3.3
				c0,0.2,0,0.5-0.1,0.9l-1.9,13.5c0,0.2-0.1,0.3-0.1,0.4c-0.1,0.1-0.2,0.1-0.4,0.1h-2.1c-0.3,0-0.4-0.2-0.4-0.6l1.8-12.8
				c0-0.4,0.1-0.7,0.1-0.9c0-1.9-1.1-2.8-3.2-2.8c-1,0-2,0.2-2.9,0.7c-0.9,0.5-2.1,1.2-3.5,2.3l-1.9,13.6c0,0.2-0.1,0.3-0.2,0.3
				c-0.1,0.1-0.2,0.1-0.4,0.1h-2.1C108.9,113.7,108.7,113.5,108.8,113.1z"/>
			<path class="st0" d="M130.4,118.8c-1.5-0.8-2.2-1.9-2.2-3.3c0-1,0.3-1.9,1-2.6c0.7-0.8,1.6-1.4,2.8-1.9c0.2-0.1,0.3-0.1,0.4-0.2
				c0-0.1,0-0.2-0.2-0.2c-0.4-0.3-0.8-0.5-1-0.8c-0.2-0.3-0.3-0.6-0.3-1c0-0.7,0.3-1.3,0.9-1.8c0.6-0.5,1.3-0.9,2.2-1.2
				c0.2,0,0.3-0.1,0.4-0.2c0-0.1,0-0.2-0.1-0.2c-1.7-0.9-2.5-2.2-2.5-3.9c0-1.5,0.4-2.7,1.2-3.7c0.8-1,1.8-1.8,3.1-2.3
				c1.3-0.5,2.7-0.8,4.2-0.8c2.5,0,4.4,0.6,5.6,1.7c0.1,0.1,0.2,0.1,0.3,0.1c0.1,0,0.3-0.1,0.6-0.4c0.5-0.4,1.1-0.8,1.7-1.1
				c0.7-0.3,1.3-0.5,1.8-0.5c0.6,0,0.8,0.2,0.7,0.6l-0.1,1.2c0,0.3-0.1,0.4-0.2,0.5c-0.1,0.1-0.2,0.1-0.5,0.1c-0.7,0-1.3,0.1-2,0.4
				c-0.4,0.1-0.7,0.3-0.8,0.4c-0.1,0.1-0.2,0.3-0.1,0.5c0.2,0.6,0.3,1.2,0.3,1.7c0,1.4-0.4,2.6-1.2,3.6c-0.8,1-1.9,1.7-3.1,2.2
				s-2.7,0.7-4.1,0.7c-1.1,0-2.2,0.1-3.4,0.3c-1.2,0.2-1.8,0.7-1.8,1.3c0,0.3,0.2,0.5,0.7,0.7c0.5,0.2,1.3,0.3,2.4,0.3l4.6,0.3
				c3.7,0.2,5.6,1.7,5.6,4.5c0,2.2-1,3.8-3,4.8s-4.5,1.5-7.3,1.5C134,120,131.9,119.6,130.4,118.8z M142.1,117.2
				c1.4-0.6,2.1-1.7,2.1-3.2c0-0.7-0.2-1.3-0.7-1.7c-0.5-0.4-1.3-0.6-2.5-0.6l-5.9-0.4c-1.2,0.3-2.2,0.7-2.9,1.3
				c-0.8,0.6-1.2,1.4-1.2,2.4c0,2,1.9,3.1,5.8,3.1C138.9,118.1,140.7,117.8,142.1,117.2z M143.1,103.1c1.1-0.8,1.6-2,1.6-3.6
				c0-1-0.4-1.8-1.1-2.4c-0.8-0.6-1.9-0.8-3.3-0.8c-1.6,0-2.9,0.4-4.1,1.3c-1.1,0.9-1.7,2.1-1.7,3.6c0,1,0.4,1.7,1.2,2.3
				c0.8,0.5,1.9,0.8,3.3,0.8C140.7,104.3,142.1,103.9,143.1,103.1z"/>
			<path class="st0" d="M165.7,113c-1.2-0.7-2.1-1.6-2.8-2.8c-0.7-1.2-1-2.6-1-4.2c0-2,0.4-3.9,1.3-5.7c0.9-1.8,2.1-3.3,3.7-4.4
				s3.4-1.7,5.5-1.7c2.4,0,4.2,0.7,5.5,2.1c1.3,1.4,2,3.3,2,5.8c0,0.7,0,1.4-0.1,2.1c-0.1,0.4-0.3,0.6-0.8,0.6h-13.6
				c-0.2,0-0.3,0.1-0.4,0.4c-0.1,0.2-0.1,0.7-0.1,1.3c0,1.6,0.5,2.9,1.5,3.9c1,1,2.3,1.5,3.8,1.5c2.5,0,4.5-1,6.1-3
				c0.1-0.1,0.2-0.1,0.3-0.1s0.2,0,0.3,0.1l1.4,0.8c0.3,0.2,0.3,0.4,0.1,0.6c-1.2,1.4-2.4,2.4-3.8,3.1c-1.4,0.6-2.9,0.9-4.7,0.9
				C168.3,114.1,166.9,113.7,165.7,113z M176.3,102.9c0.3,0,0.5-0.1,0.6-0.3c0.1-0.2,0.2-0.7,0.2-1.3c0-1.4-0.4-2.6-1.3-3.5
				s-2-1.3-3.5-1.3c-1.2,0-2.4,0.3-3.4,0.9c-1,0.6-1.8,1.4-2.4,2.4c-0.6,1-1,2-1.1,3.2H176.3z"/>
			<path class="st0" d="M201,94.8c0.1,0.1,0.1,0.3,0,0.4l-9.9,18c-0.1,0.2-0.2,0.3-0.3,0.4c-0.1,0.1-0.3,0.1-0.5,0.1h-1.3
				c-0.2,0-0.4-0.1-0.6-0.2c-0.1-0.1-0.2-0.2-0.3-0.4l-4.8-18V95c0-0.2,0.1-0.4,0.4-0.4h2.2c0.2,0,0.3,0,0.4,0.1
				c0.1,0.1,0.1,0.2,0.1,0.3l3.7,14.1c0,0.2,0.1,0.3,0.2,0.3c0.1,0,0.3-0.2,0.4-0.5l7.6-14.1c0.1-0.1,0.1-0.2,0.2-0.2
				c0.1,0,0.2-0.1,0.3-0.1h1.7C200.9,94.6,201,94.7,201,94.8z"/>
			<path class="st0" d="M204.3,111.8c-1.4-1.5-2.1-3.4-2.1-5.9c0-2.2,0.5-4.2,1.4-6c0.9-1.8,2.2-3.2,3.8-4.2c1.6-1,3.4-1.5,5.3-1.5
				c2.4,0,4.4,0.8,5.8,2.3c1.4,1.5,2.1,3.5,2.1,6c0,2.2-0.5,4.1-1.4,5.9c-0.9,1.7-2.2,3.1-3.8,4.1c-1.6,1-3.4,1.5-5.3,1.5
				C207.7,114.1,205.8,113.3,204.3,111.8z M214,110.6c1.1-0.8,2-1.9,2.6-3.4c0.6-1.5,1-3.2,1-5.1c0-1.8-0.4-3.1-1.3-4.1
				c-0.9-1-2.1-1.5-3.6-1.5c-1.4,0-2.6,0.4-3.7,1.2s-2,2-2.7,3.4c-0.6,1.5-1,3.2-1,5.1c0,1.7,0.4,3.1,1.3,4.1c0.9,1,2.1,1.5,3.7,1.5
				C211.7,111.8,212.9,111.4,214,110.6z"/>
			<path class="st0" d="M227.4,113.2c0,0.2-0.1,0.4-0.1,0.4c-0.1,0.1-0.2,0.1-0.5,0.1H225c-0.4,0-0.6-0.2-0.5-0.6l3.7-25.7
				c0-0.2,0.1-0.3,0.1-0.3c0,0,0.1-0.1,0.3-0.1h2.2c0.3,0,0.4,0.2,0.3,0.5L227.4,113.2z"/>
			<path class="st0" d="M235.5,112.8c-0.9-0.9-1.4-2-1.4-3.4c0-0.4,0-0.7,0-0.9l1.9-13.4c0-0.2,0.1-0.3,0.1-0.4
				c0.1-0.1,0.2-0.1,0.4-0.1h2c0.2,0,0.3,0.1,0.4,0.2c0.1,0.1,0.1,0.2,0.1,0.4l-1.8,12.6c0,0.4-0.1,0.6-0.1,0.8c0,2,1,3.1,3.1,3.1
				c1,0,2-0.3,3-0.8c1-0.6,2.1-1.3,3.3-2.4l1.9-13.4c0-0.2,0.1-0.3,0.2-0.3c0.1-0.1,0.2-0.1,0.4-0.1h2c0.2,0,0.3,0.1,0.4,0.2
				c0.1,0.1,0.1,0.2,0.1,0.4l-2.6,18.1c0,0.1-0.1,0.2-0.1,0.3c0,0-0.1,0.1-0.3,0.1h-2.1c-0.3,0-0.4-0.1-0.4-0.4l0.3-2v-0.1
				c0-0.1,0-0.1-0.1-0.1c-0.1,0-0.2,0-0.3,0.1c-1.4,1.1-2.6,1.8-3.7,2.2s-2.1,0.6-3.1,0.6C237.7,114.1,236.4,113.6,235.5,112.8z"/>
			<path class="st0" d="M257.3,110.4c0-0.5,0-0.9,0.1-1.2l1.7-12v-0.1c0-0.2-0.1-0.3-0.3-0.3h-3c-0.2,0-0.3-0.1-0.3-0.4l0.2-1.5
				c0-0.1,0.1-0.2,0.1-0.2c0,0,0.1-0.1,0.2-0.1h3.1c0.1,0,0.2,0,0.3-0.1c0.1-0.1,0.1-0.2,0.1-0.3l1.2-5.7c0.1-0.2,0.2-0.4,0.5-0.4
				h1.8c0.2,0,0.3,0.2,0.3,0.6l-0.8,5.6v0.1c0,0.1,0.1,0.2,0.3,0.2h4.5c0.3,0,0.4,0.1,0.4,0.3l-0.2,1.6c0,0.1-0.1,0.2-0.1,0.2
				c0,0-0.1,0.1-0.3,0.1h-4.6c-0.2,0-0.4,0.1-0.4,0.4l-1.6,11.4c0,0.3-0.1,0.6-0.1,1c0,0.7,0.1,1.2,0.4,1.4c0.3,0.2,0.8,0.4,1.5,0.4
				h2.5c0.1,0,0.2,0,0.3,0.1c0.1,0.1,0.1,0.2,0.1,0.3l-0.2,1.2c0,0.3-0.1,0.4-0.4,0.4c-0.7,0.1-1.8,0.1-3.4,0.1
				C258.6,113.7,257.3,112.6,257.3,110.4z"/>
			<path class="st0" d="M272.4,113.2c0,0.2-0.1,0.4-0.1,0.4c-0.1,0-0.2,0.1-0.5,0.1h-1.8c-0.4,0-0.6-0.2-0.5-0.6L272,95
				c0-0.2,0.1-0.3,0.1-0.3c0,0,0.1-0.1,0.3-0.1h2.3c0.3,0,0.4,0.2,0.4,0.5L272.4,113.2z M275.7,90.6c0,0.2-0.1,0.4-0.2,0.5
				c-0.1,0.1-0.2,0.1-0.5,0.1h-2.2c-0.4,0-0.5-0.2-0.4-0.7l0.4-3c0-0.4,0.2-0.5,0.5-0.5h2.3c0.1,0,0.3,0.1,0.3,0.2s0.1,0.3,0,0.5
				L275.7,90.6z"/>
			<path class="st0" d="M280.8,111.8c-1.4-1.5-2.1-3.4-2.1-5.9c0-2.2,0.5-4.2,1.4-6c0.9-1.8,2.2-3.2,3.8-4.2c1.6-1,3.4-1.5,5.3-1.5
				c2.4,0,4.4,0.8,5.8,2.3s2.1,3.5,2.1,6c0,2.2-0.5,4.1-1.4,5.9s-2.2,3.1-3.8,4.1c-1.6,1-3.4,1.5-5.3,1.5
				C284.2,114.1,282.3,113.3,280.8,111.8z M290.5,110.6c1.1-0.8,2-1.9,2.6-3.4c0.6-1.5,1-3.2,1-5.1c0-1.8-0.4-3.1-1.3-4.1
				c-0.9-1-2.1-1.5-3.6-1.5c-1.4,0-2.6,0.4-3.7,1.2c-1.1,0.8-2,2-2.7,3.4c-0.6,1.5-1,3.2-1,5.1c0,1.7,0.4,3.1,1.3,4.1
				c0.9,1,2.1,1.5,3.7,1.5C288.2,111.8,289.4,111.4,290.5,110.6z"/>
			<path class="st0" d="M300.9,113.1l2.6-18.1c0-0.1,0.1-0.2,0.1-0.3c0,0,0.1-0.1,0.3-0.1h2.3c0.3,0,0.4,0.1,0.3,0.4l-0.3,2.1v0.1
				c0,0.1,0.1,0.1,0.3,0c1.2-1,2.4-1.7,3.5-2.2c1.1-0.5,2.3-0.7,3.5-0.7c1.7,0,2.9,0.4,3.8,1.2c0.9,0.8,1.4,1.9,1.4,3.3
				c0,0.2,0,0.5-0.1,0.9l-1.9,13.5c0,0.2-0.1,0.3-0.1,0.4c-0.1,0.1-0.2,0.1-0.4,0.1h-2.1c-0.3,0-0.4-0.2-0.4-0.6l1.8-12.8
				c0-0.4,0.1-0.7,0.1-0.9c0-1.9-1.1-2.8-3.2-2.8c-1,0-2,0.2-2.9,0.7c-0.9,0.5-2.1,1.2-3.5,2.3l-1.9,13.6c0,0.2-0.1,0.3-0.2,0.3
				c-0.1,0.1-0.2,0.1-0.4,0.1h-2.1C301,113.7,300.9,113.5,300.9,113.1z"/>
		</g>
	</g>
	<g>
		<g>
			<g>
				<path class="st0" d="M98.5,22.2c2-0.6,4.7-1.1,7.9-1.7c3.3-0.5,6.9-0.8,10.8-0.8c3.7,0,6.8,0.5,9.3,1.5c2.5,1,4.5,2.4,6,4.3
					c1.5,1.8,2.5,4,3.1,6.6c0.6,2.6,0.9,5.4,0.9,8.5v25.7H126v-24c0-2.4-0.2-4.5-0.5-6.2c-0.3-1.7-0.8-3.1-1.6-4.2
					c-0.7-1.1-1.7-1.9-3-2.4c-1.2-0.5-2.8-0.7-4.6-0.7c-1.3,0-2.7,0.1-4.2,0.3c-1.5,0.2-2.5,0.3-3.2,0.4v36.9H98.5V22.2z"/>
				<path class="st0" d="M153.5,66.4c-2.9-6-5.9-12.9-9-20.7c-3.1-7.8-5.8-16.1-8.4-25h11.2c0.6,2.6,1.4,5.3,2.2,8.3
					c0.8,2.9,1.7,5.9,2.7,8.8c1,2.9,2,5.8,3,8.6c1,2.8,2,5.3,2.8,7.5c0.9-2.2,1.8-4.7,2.8-7.5c1-2.8,2-5.6,2.9-8.6
					c1-2.9,1.9-5.9,2.8-8.8c0.9-2.9,1.6-5.7,2.3-8.3h10.9c-2.5,8.9-5.3,17.3-8.4,25c-3.1,7.8-6.1,14.7-9,20.7H153.5z"/>
				<path class="st0" d="M224.8,43.5c0,3.6-0.6,6.9-1.7,9.9c-1.1,3-2.7,5.5-4.7,7.6c-2,2.1-4.5,3.7-7.4,4.9c-2.9,1.2-6,1.7-9.5,1.7
					c-3.5,0-6.6-0.6-9.4-1.7c-2.8-1.2-5.3-2.8-7.3-4.9c-2-2.1-3.6-4.6-4.8-7.6c-1.1-3-1.7-6.3-1.7-9.9c0-3.6,0.6-6.9,1.7-9.8
					c1.1-2.9,2.7-5.5,4.8-7.6c2.1-2.1,4.5-3.7,7.4-4.8c2.8-1.1,6-1.7,9.4-1.7c3.4,0,6.5,0.6,9.4,1.7c2.9,1.1,5.3,2.8,7.4,4.8
					c2,2.1,3.6,4.6,4.8,7.6C224.2,36.6,224.8,39.9,224.8,43.5z M213.3,43.5c0-4.5-1-8.1-3.1-10.8c-2.1-2.6-5-4-8.7-4
					c-3.7,0-6.6,1.3-8.7,4c-2.1,2.6-3.1,6.2-3.1,10.8c0,4.6,1,8.2,3.1,10.9c2.1,2.7,5,4,8.7,4c3.7,0,6.6-1.3,8.7-4
					C212.2,51.8,213.3,48.1,213.3,43.5z"/>
				<g>
					<polygon class="st0" points="288.6,30.5 288.6,30.5 288.6,30.5 					"/>
					<path class="st0" d="M320.1,30.3c-0.6-2.2-1.4-4.1-2.8-5.7c-1.4-1.6-3.2-2.8-5.6-3.7c-2.4-0.9-5.3-1.3-8.7-1.3
						c-2.9,0-5.7,0.2-8.2,0.7c-2.4,0.4-2.9,0.9-5.6,1.3v0c-1.1-0.3-1.8-0.6-2.7-0.8c-0.9-0.2-1.7-0.4-2.7-0.5
						c-0.9-0.1-1.8-0.3-2.8-0.3c-0.9-0.1-1.7-0.1-2.4-0.1c-3.7,0-7,0.3-10,1c-3.1,0.7-4.8,1.4-7.5,2.1v33c-3,0.8-4.7,1.3-6.3,1.7
						c-1.5,0.4-4.9,0.8-6.8,0.8c-2.8,0-5.4-0.8-6.6-2.4c-1.2-1.6-2.4-4.2-2.4-7.9V28.9h15.9v-9.3h-15.9V6.9l-10,1.9v39.6
						c0,3,0.4,5.7,0.9,8.1c0.5,2.4,2,4.3,3.2,5.9c1.3,1.7,3,2.9,5.2,3.8c2.2,0.9,4.9,1.3,8.2,1.3c2.7,0,5.1-0.3,7.1-0.8
						c1.4-0.4,3.4-0.7,7.5-2.4l-0.1,2.7h10.6V29.8c0-0.2,1.3-0.4,2.6-0.6c1.3-0.2,2.5-0.3,3.6-0.3c2,0,3.8,0.2,5.3,0.5
						c1.5,0.3,4.1,1.6,5.7,3c1.5-1.8,4.7-3,6.4-3.3c2-0.3,4.3-0.5,6.7-0.5c1.8,0,3.3,0.2,4.5,0.7c1.2,0.5,2.1,1.1,2.9,2
						c0.7,0.8,1,1.8,1.3,2.9c0.3,1.1,0.2,2.3,0.2,3.5v1.7c0-0.3-2.6-0.6-3.9-0.7c-1.3-0.1-2.4-0.2-3.6-0.2c-2.5,0-4.8,0.2-7.1,0.7
						c-2.3,0.5-4.3,1.3-6,2.4c-1.7,1.1-3.1,2.6-4.1,4.4c-1,1.8-1.5,4-1.5,6.6c0,2.7,0.5,5,1.4,6.9c0.9,1.9,2.2,3.4,3.7,4.5
						c1.6,1.2,3.5,2,5.8,2.5c2.3,0.5,4.8,0.8,7.5,0.8c4.1,0,7.3-0.2,10.6-0.7c3.3-0.5,6.8-0.9,6.8-1.3V37.7
						C320.5,35,320.7,32.5,320.1,30.3z M310.9,58.4c0,0.3-4,0.5-7.2,0.5c-2.7,0-4.7-0.5-6.3-1.4c-1.6-1-2.3-2.7-2.3-5.2
						c0-1.3,0.3-2.3,0.9-3.2c0.6-0.8,1.4-1.5,2.3-2c1-0.5,2-0.8,3.2-1c1.2-0.2,2.4-0.3,3.5-0.3c1.3,0,2.4,0.1,3.5,0.3
						c1.1,0.2,2.3,0.3,2.3,0.5V58.4z"/>
				</g>
				<path class="st0" d="M93.9,12.5c0,1.9-0.6,3.3-1.9,4.4c-1.3,1.1-2.7,1.6-4.4,1.6c-1.8,0-3.3-0.5-4.5-1.6
					c-1.3-1.1-1.9-2.6-1.9-4.4c0-1.9,0.6-3.4,1.9-4.5c1.3-1.1,2.8-1.6,4.5-1.6c1.7,0,3.2,0.5,4.4,1.6C93.3,9.1,93.9,10.6,93.9,12.5z
					"/>
				<path class="st0" d="M82.3,26.7v39.7h10.4V23.5l0,0C90.1,24.2,86.6,25.2,82.3,26.7z"/>
				<g>
					<path class="st0" d="M336,60.7c0,0.9-0.2,1.7-0.5,2.5c-0.3,0.7-0.7,1.3-1.2,1.8c-0.5,0.5-1.1,0.9-1.8,1.1
						c-0.7,0.3-1.4,0.4-2.1,0.4c-0.7,0-1.4-0.1-2.1-0.4c-0.7-0.3-1.2-0.6-1.8-1.1c-0.5-0.5-0.9-1.1-1.2-1.8
						c-0.3-0.7-0.5-1.5-0.5-2.5c0-0.9,0.2-1.7,0.5-2.5c0.3-0.7,0.7-1.3,1.2-1.8c0.5-0.5,1.1-0.9,1.8-1.1c0.7-0.3,1.4-0.4,2.1-0.4
						c0.7,0,1.4,0.1,2.1,0.4c0.7,0.3,1.2,0.6,1.8,1.1c0.5,0.5,0.9,1.1,1.2,1.8C335.9,59,336,59.8,336,60.7z M334.9,60.7
						c0-0.7-0.1-1.4-0.3-1.9c-0.2-0.6-0.5-1.1-0.9-1.5c-0.4-0.4-0.8-0.7-1.4-1c-0.5-0.2-1.1-0.3-1.7-0.3s-1.2,0.1-1.7,0.3
						c-0.5,0.2-1,0.5-1.4,1c-0.4,0.4-0.7,0.9-0.9,1.5c-0.2,0.6-0.3,1.2-0.3,1.9s0.1,1.4,0.3,1.9c0.2,0.6,0.5,1.1,0.9,1.5
						c0.4,0.4,0.8,0.7,1.4,1c0.5,0.2,1.1,0.3,1.7,0.3s1.2-0.1,1.7-0.3c0.5-0.2,1-0.5,1.4-1c0.4-0.4,0.7-0.9,0.9-1.5
						C334.7,62.1,334.9,61.4,334.9,60.7z M332.1,63.9c-0.2-0.5-0.5-0.9-0.8-1.4c-0.3-0.4-0.6-0.8-0.8-1h-1.1v2.4h-1.1v-6.3
						c0.3-0.1,0.6-0.1,0.9-0.1c0.3,0,0.6,0,0.9,0c0.9,0,1.6,0.2,2.1,0.5c0.5,0.3,0.7,0.9,0.7,1.6c0,0.4-0.1,0.7-0.3,1
						c-0.2,0.3-0.5,0.5-0.9,0.7c0.1,0.1,0.2,0.3,0.4,0.5c0.1,0.2,0.3,0.4,0.4,0.6c0.2,0.2,0.3,0.5,0.5,0.7c0.2,0.3,0.3,0.5,0.4,0.8
						L332.1,63.9L332.1,63.9z M329.4,60.6h0.6c0.5,0,0.9-0.1,1.2-0.2c0.3-0.1,0.5-0.4,0.5-0.8c0-0.4-0.2-0.7-0.5-0.8
						c-0.3-0.2-0.7-0.2-1.1-0.2c-0.1,0-0.2,0-0.4,0c-0.1,0-0.3,0-0.4,0L329.4,60.6L329.4,60.6z"/>
				</g>
			</g>
		</g>
		<circle class="st0" cx="35.7" cy="37.3" r="30.9"/>
		<g>
			<path class="st1" d="M50.2,22.1c-3.2,1.1-6.2,2.6-8.9,4.5c-2.7,1.9-5,4.2-7,6.9c-1.2-0.7-2.9-1.7-4.5-3.2
				c-4.4-3.9-7.3-9-8.4-15.1c4.1-2.7,9.1-4.3,14.3-4.3c8.3,0,15.7,3.8,20.5,9.8C54.6,21,52.5,21.4,50.2,22.1z"/>
			<path class="st2" d="M26.3,34.7c1.8,1.6,3.5,2.7,5,3.5c-0.8,1.1-2,2.5-3.6,4c-4.3,3.8-9.6,6-15.6,6.6c-1.7-3.5-2.6-7.4-2.6-11.5
				c0-7,2.7-13.3,7.2-18c0.8,2.8,1.9,5.5,3.4,7.9C21.6,29.9,23.8,32.5,26.3,34.7z"/>
			<path class="st2" d="M52.4,50.3c-1.4-3.1-3.3-5.9-5.5-8.3c-2.1-2.3-4.6-4.3-7.4-5.9c7.3-9.1,17.8-9.9,20.1-9.9
				c1.6,3.4,2.5,7.2,2.5,11.1c0,7.2-2.9,13.8-7.6,18.5C54,54.2,53.3,52.3,52.4,50.3z"/>
			<path class="st1" d="M23.3,51.6c3-1.4,5.8-3.2,8.3-5.4c2.2-2,3.8-4,4.8-5.4C46.6,46.5,49,56.6,49.5,59.6c-4,2.5-8.7,3.9-13.8,3.9
				c-8.2,0-15.5-3.7-20.3-9.6C18.2,53.5,20.8,52.7,23.3,51.6z"/>
		</g>
	</g>
</g>
</svg>
