<?xml version="1.0" encoding="utf-8"?>
<!-- Generator: Adobe Illustrator 22.0.1, SVG Export Plug-In . SVG Version: 6.00 Build 0)  -->
<svg version="1.1" id="Layer_1" xmlns="http://www.w3.org/2000/svg" xmlns:xlink="http://www.w3.org/1999/xlink" x="0px" y="0px"
	 viewBox="0 0 340 125.5" style="enable-background:new 0 0 340 125.5;" xml:space="preserve">
<style type="text/css">
	.st0{fill:#333333;}
	.st1{fill:#4BB88B;}
	.st2{fill:#6FC6A2;}
</style>
<g>
	<g>
		<g>
			<path class="st0" d="M99.7,22.4c2-0.6,4.7-1.1,7.9-1.7c3.3-0.5,6.9-0.8,10.8-0.8c3.7,0,6.8,0.5,9.3,1.5c2.5,1,4.5,2.4,6,4.3
				c1.5,1.8,2.5,4.1,3.1,6.6c0.6,2.6,0.9,5.4,0.9,8.5v25.7h-10.6v-24c0-2.4-0.2-4.5-0.5-6.3c-0.3-1.7-0.8-3.1-1.6-4.2
				c-0.7-1.1-1.7-1.9-3-2.4c-1.3-0.5-2.8-0.7-4.6-0.7c-1.3,0-2.7,0.1-4.2,0.3c-1.5,0.2-2.5,0.3-3.2,0.4v36.9H99.7V22.4z"/>
			<path class="st0" d="M154.8,66.7c-2.9-6-5.9-12.9-9-20.7c-3.1-7.8-5.9-16.1-8.4-25.1h11.3c0.6,2.6,1.4,5.3,2.2,8.3
				c0.8,2.9,1.8,5.9,2.7,8.8c1,2.9,2,5.8,3,8.6c1,2.8,2,5.3,2.8,7.5c0.9-2.2,1.8-4.7,2.8-7.5c1-2.8,2-5.6,2.9-8.6
				c1-2.9,1.9-5.9,2.8-8.8c0.9-2.9,1.6-5.7,2.3-8.3h10.9c-2.5,8.9-5.3,17.3-8.4,25.1c-3.1,7.8-6.1,14.7-9,20.7H154.8z"/>
			<path class="st0" d="M226.1,43.8c0,3.6-0.6,6.9-1.7,9.9c-1.1,3-2.7,5.5-4.7,7.6c-2,2.1-4.5,3.7-7.4,4.9c-2.9,1.2-6,1.7-9.5,1.7
				c-3.5,0-6.6-0.6-9.5-1.7c-2.8-1.2-5.3-2.8-7.3-4.9c-2-2.1-3.6-4.6-4.8-7.6c-1.1-3-1.7-6.3-1.7-9.9c0-3.6,0.6-6.9,1.7-9.8
				c1.1-2.9,2.7-5.5,4.8-7.6c2.1-2.1,4.5-3.7,7.4-4.9c2.8-1.1,6-1.7,9.4-1.7c3.4,0,6.5,0.6,9.4,1.7c2.9,1.1,5.3,2.8,7.4,4.9
				c2,2.1,3.6,4.6,4.8,7.6C225.5,36.9,226.1,40.1,226.1,43.8z M214.6,43.8c0-4.5-1-8.1-3.1-10.8c-2.1-2.7-5-4-8.7-4s-6.6,1.3-8.7,4
				c-2.1,2.7-3.1,6.3-3.1,10.8c0,4.6,1,8.2,3.1,10.9c2.1,2.7,5,4,8.7,4s6.6-1.3,8.7-4C213.6,52,214.6,48.4,214.6,43.8z"/>
			<g>
				<polygon class="st0" points="290,30.7 290,30.7 290,30.7 				"/>
				<path class="st0" d="M321.5,30.5c-0.6-2.2-1.4-4.2-2.8-5.7c-1.4-1.6-3.2-2.8-5.6-3.7c-2.4-0.9-5.3-1.3-8.7-1.3
					c-2.9,0-5.7,0.2-8.3,0.7c-2.4,0.4-2.9,0.9-5.7,1.3v0c-1.1-0.3-1.8-0.6-2.7-0.8c-0.9-0.2-1.7-0.4-2.7-0.5
					c-0.9-0.1-1.8-0.3-2.8-0.4c-0.9-0.1-1.7-0.1-2.4-0.1c-3.7,0-7,0.3-10,1s-4.8,1.4-7.5,2.1v33c-3,0.8-4.7,1.3-6.3,1.7
					c-1.5,0.4-4.9,0.8-6.8,0.8c-2.8,0-5.4-0.8-6.6-2.4c-1.2-1.6-2.4-4.2-2.4-7.9V29.1h15.9v-9.3h-15.9V7.1l-10,1.9v39.6
					c0,3,0.4,5.7,0.9,8.1c0.5,2.4,2,4.3,3.2,5.9c1.3,1.7,3,2.9,5.2,3.8c2.2,0.9,4.9,1.3,8.2,1.3c2.7,0,5.1-0.3,7.1-0.8
					c1.4-0.4,3.4-0.7,7.5-2.4l-0.1,2.7H273V30c0-0.2,1.3-0.4,2.6-0.6c1.3-0.2,2.5-0.4,3.6-0.4c2,0,3.8,0.2,5.3,0.5
					c1.5,0.3,4.1,1.6,5.7,3c1.5-1.8,4.7-3,6.4-3.3c2-0.4,4.3-0.5,6.7-0.5c1.8,0,3.3,0.2,4.5,0.7c1.2,0.5,2.2,1.1,2.9,2
					c0.7,0.8,1,1.8,1.3,2.9c0.3,1.1,0.2,2.3,0.2,3.5v1.7c0-0.4-2.6-0.6-3.9-0.7c-1.3-0.1-2.4-0.2-3.6-0.2c-2.5,0-4.9,0.2-7.1,0.7
					c-2.3,0.5-4.3,1.3-6,2.4c-1.7,1.1-3.1,2.6-4.1,4.4c-1,1.8-1.5,4-1.5,6.6c0,2.7,0.5,5,1.4,6.9c0.9,1.9,2.2,3.4,3.8,4.5
					c1.6,1.2,3.5,2,5.8,2.5c2.3,0.5,4.8,0.8,7.5,0.8c4.1,0,7.3-0.2,10.6-0.7c3.3-0.5,6.8-0.9,6.8-1.3V37.9
					C321.9,35.2,322.2,32.7,321.5,30.5z M312.4,58.7c0,0.4-4,0.5-7.2,0.5c-2.7,0-4.7-0.5-6.3-1.4c-1.6-1-2.3-2.7-2.3-5.2
					c0-1.3,0.3-2.3,0.9-3.2c0.6-0.8,1.4-1.5,2.3-2c1-0.5,2-0.8,3.2-1c1.2-0.2,2.4-0.3,3.5-0.3c1.3,0,2.4,0.1,3.5,0.3
					c1.1,0.2,2.3,0.3,2.3,0.5V58.7z"/>
			</g>
			<path class="st0" d="M95.1,12.7c0,1.9-0.6,3.3-1.9,4.4c-1.3,1.1-2.7,1.6-4.5,1.6c-1.8,0-3.3-0.5-4.5-1.6
				c-1.3-1.1-1.9-2.6-1.9-4.4c0-1.9,0.6-3.4,1.9-4.5c1.3-1.1,2.8-1.6,4.5-1.6c1.7,0,3.2,0.5,4.5,1.6C94.4,9.3,95.1,10.8,95.1,12.7z"
				/>
			<path class="st0" d="M83.5,26.9v39.7h10.4v-43l0,0C91.2,24.4,87.8,25.4,83.5,26.9z"/>
			<g>
				<path class="st0" d="M337.5,61c0,0.9-0.2,1.7-0.5,2.5c-0.3,0.7-0.7,1.3-1.2,1.8c-0.5,0.5-1.1,0.9-1.8,1.1
					c-0.7,0.3-1.4,0.4-2.1,0.4c-0.7,0-1.4-0.1-2.1-0.4c-0.7-0.3-1.3-0.6-1.8-1.1c-0.5-0.5-0.9-1.1-1.2-1.8c-0.3-0.7-0.5-1.5-0.5-2.5
					s0.2-1.7,0.5-2.5c0.3-0.7,0.7-1.3,1.2-1.8c0.5-0.5,1.1-0.9,1.8-1.1c0.7-0.3,1.4-0.4,2.1-0.4c0.7,0,1.4,0.1,2.1,0.4
					c0.7,0.3,1.2,0.6,1.8,1.1c0.5,0.5,0.9,1.1,1.2,1.8C337.4,59.2,337.5,60.1,337.5,61z M336.3,61c0-0.7-0.1-1.4-0.3-1.9
					c-0.2-0.6-0.5-1.1-0.9-1.5c-0.4-0.4-0.8-0.7-1.4-1c-0.5-0.2-1.1-0.3-1.7-0.3s-1.2,0.1-1.7,0.3c-0.5,0.2-1,0.5-1.4,1
					c-0.4,0.4-0.7,0.9-0.9,1.5c-0.2,0.6-0.3,1.2-0.3,1.9c0,0.7,0.1,1.4,0.3,1.9c0.2,0.6,0.5,1.1,0.9,1.5c0.4,0.4,0.8,0.7,1.4,1
					c0.5,0.2,1.1,0.3,1.7,0.3s1.2-0.1,1.7-0.3c0.5-0.2,1-0.5,1.4-1c0.4-0.4,0.7-0.9,0.9-1.5C336.2,62.3,336.3,61.7,336.3,61z
					 M333.6,64.2c-0.2-0.5-0.5-0.9-0.8-1.4c-0.3-0.4-0.6-0.8-0.8-1h-1.1v2.4h-1.1v-6.3c0.3-0.1,0.6-0.1,0.9-0.1c0.3,0,0.6,0,0.9,0
					c0.9,0,1.6,0.2,2.1,0.5c0.5,0.3,0.7,0.9,0.7,1.6c0,0.4-0.1,0.7-0.3,1c-0.2,0.3-0.5,0.5-0.9,0.7c0.1,0.1,0.2,0.3,0.4,0.5
					c0.1,0.2,0.3,0.4,0.4,0.6c0.2,0.2,0.3,0.5,0.5,0.7c0.2,0.3,0.3,0.5,0.4,0.8L333.6,64.2L333.6,64.2z M330.9,60.8h0.6
					c0.5,0,0.9-0.1,1.2-0.2c0.3-0.1,0.5-0.4,0.5-0.8c0-0.4-0.2-0.7-0.5-0.8c-0.3-0.2-0.7-0.2-1.1-0.2c-0.1,0-0.2,0-0.4,0
					c-0.1,0-0.3,0-0.4,0L330.9,60.8L330.9,60.8z"/>
			</g>
		</g>
		<g>
			<path class="st1" d="M52.4,20.4c-3.7,1.2-7.2,3-10.3,5.2c-3.1,2.2-5.8,4.9-8.1,8c-1.4-0.8-3.3-2-5.2-3.7
				c-5.1-4.5-8.4-10.4-9.8-17.5c4.8-3.1,10.5-4.9,16.6-4.9c9.6,0,18.2,4.4,23.7,11.4C57.4,19.1,55,19.6,52.4,20.4z"/>
			<path class="st2" d="M24.8,35c2.1,1.8,4.1,3.1,5.7,4.1c-1,1.3-2.3,2.9-4.2,4.6c-5,4.4-11.1,7-18.1,7.6c-2-4-3-8.5-3-13.3
				c0-8.1,3.1-15.4,8.3-20.9c0.9,3.3,2.2,6.3,3.9,9.1C19.3,29.5,21.8,32.4,24.8,35z"/>
			<path class="st2" d="M54.9,53c-1.7-3.6-3.8-6.8-6.4-9.6c-2.5-2.7-5.4-5-8.6-6.9C48.5,26,60.6,25.1,63.2,25
				c1.8,3.9,2.9,8.3,2.9,12.9c0,8.4-3.4,15.9-8.8,21.4C56.8,57.5,56,55.3,54.9,53z"/>
			<path class="st1" d="M21.2,54.5c3.5-1.6,6.8-3.7,9.6-6.3c2.5-2.3,4.3-4.6,5.5-6.3C48.2,48.7,51,60.4,51.6,63.8
				c-4.6,2.9-10.1,4.5-16,4.5c-9.5,0-17.9-4.3-23.5-11.1C15.3,56.7,18.4,55.8,21.2,54.5z"/>
		</g>
	</g>
</g>
<g>
	<path class="st0" d="M8.1,100.9c-0.9-0.5-1.7-1.2-2.2-2.2c-0.5-0.9-0.8-2-0.8-3.2c0-1.5,0.3-2.9,1-4.3S7.8,88.8,9,88
		c1.2-0.8,2.6-1.2,4.2-1.2c1.8,0,3.2,0.5,4.3,1.6c1,1.1,1.6,2.5,1.6,4.4c0,0.5,0,1.1-0.1,1.5c0,0.3-0.2,0.4-0.6,0.4H8.4
		c-0.1,0-0.2,0.1-0.3,0.3c-0.1,0.2-0.1,0.5-0.1,0.9c0,1.1,0.3,2,1,2.6c0.7,0.6,1.6,1,2.7,1c1.7,0,3.1-0.7,4.3-2.1
		c0.1-0.1,0.2-0.1,0.2-0.1c0.1,0,0.2,0,0.2,0.1l1.3,0.6c0.1,0.1,0.2,0.2,0.2,0.3c0,0.1,0,0.2-0.1,0.2c-0.9,1.1-1.9,1.9-2.9,2.3
		c-1,0.5-2.2,0.7-3.6,0.7C10.1,101.6,9.1,101.4,8.1,100.9z M15.7,93.1c0.2,0,0.4-0.1,0.5-0.3c0.1-0.2,0.2-0.5,0.2-0.9
		c0-1-0.3-1.7-0.9-2.3c-0.6-0.6-1.4-0.9-2.3-0.9c-0.8,0-1.6,0.2-2.3,0.6c-0.7,0.4-1.2,1-1.7,1.6c-0.4,0.7-0.7,1.4-0.8,2.2H15.7z"/>
	<path class="st0" d="M21,100.8l1.9-13.5c0-0.1,0-0.2,0.1-0.3s0.1-0.1,0.2-0.1h2.2c0.2,0,0.3,0.1,0.2,0.3l-0.2,1.5v0.1
		c0,0.1,0,0.1,0.1,0.1c0.1,0,0.1,0,0.2-0.1c1.8-1.4,3.5-2.1,5.1-2.1c1.2,0,2.2,0.3,2.9,0.9s1,1.5,1,2.5c0,0.2,0,0.4-0.1,0.7l-1.4,10
		c0,0.2-0.1,0.3-0.1,0.3c-0.1,0.1-0.2,0.1-0.4,0.1h-2.1c-0.3,0-0.4-0.2-0.3-0.5l1.3-9.4c0-0.3,0.1-0.5,0.1-0.6
		c0-1.2-0.7-1.9-2.1-1.9c-0.7,0-1.4,0.2-2,0.5c-0.6,0.3-1.4,0.9-2.3,1.6l-1.4,9.9c0,0.2-0.1,0.3-0.1,0.3s-0.2,0.1-0.4,0.1h-2
		C21.1,101.4,21,101.2,21,100.8z"/>
	<path class="st0" d="M40.5,101.6c-1.3,0-2.3-0.3-3-0.9s-1.1-1.5-1.1-2.5c0-1.8,0.8-3.1,2.4-4c1.6-0.9,3.5-1.4,5.6-1.5l1.8-0.1
		c0.2,0,0.3-0.1,0.4-0.1c0.1-0.1,0.2-0.2,0.2-0.3l0.1-0.7c0-0.1,0-0.3,0-0.5c0-0.7-0.2-1.3-0.7-1.7c-0.5-0.4-1.1-0.6-1.9-0.6
		c-1.6,0-2.9,0.7-3.9,2.1c-0.1,0.1-0.3,0.2-0.5,0.1l-1.8-0.5c-0.1,0-0.2-0.1-0.2-0.3c0-0.1,0-0.2,0.1-0.4c0.6-0.9,1.5-1.7,2.6-2.1
		s2.3-0.7,3.8-0.7c1.7,0,3,0.3,3.8,1c0.9,0.7,1.3,1.6,1.3,2.8c0,0.2,0,0.5-0.1,0.8l-1.3,9.5c0,0.2-0.1,0.3-0.1,0.3
		c-0.1,0-0.2,0.1-0.3,0.1h-1.8c-0.3,0-0.4-0.2-0.4-0.5l0.1-1.1c0-0.1,0-0.2-0.1-0.2s-0.2,0.1-0.3,0.2
		C44.1,101,42.4,101.6,40.5,101.6z M46.5,94.5v-0.1c0-0.1,0-0.1-0.1-0.2c0,0-0.1,0-0.2,0l-1.6,0.1c-1.4,0.1-2.6,0.4-3.6,0.9
		c-1.1,0.5-1.6,1.3-1.6,2.5c0,0.6,0.2,1,0.6,1.4s1,0.5,1.7,0.5c0.5,0,1.1-0.1,1.6-0.3c0.5-0.2,1-0.4,1.4-0.7c0.4-0.3,0.7-0.6,1-1
		s0.4-0.7,0.5-1L46.5,94.5z"/>
	<path class="st0" d="M52.5,101.4c-0.2,0-0.3,0-0.4-0.1s-0.1-0.2-0.1-0.4l2.7-19.1c0-0.1,0-0.2,0.1-0.3c0,0,0.1-0.1,0.2-0.1h2.3
		c0.2,0,0.3,0.2,0.2,0.5l-0.9,6.4l0,0.1c0,0.1,0,0.1,0.1,0.1c0,0,0.1-0.1,0.3-0.2c0.6-0.4,1.2-0.8,1.9-1.1s1.5-0.4,2.4-0.4
		c1.6,0,2.8,0.5,3.7,1.5c0.8,1,1.2,2.4,1.2,4.2c0,1.5-0.3,2.9-0.8,4.3c-0.5,1.4-1.3,2.5-2.4,3.4c-1.1,0.9-2.4,1.3-4,1.3
		c-1,0-1.9-0.2-2.6-0.7c-0.7-0.4-1.2-0.9-1.5-1.5c-0.1-0.1-0.1-0.1-0.2-0.1c-0.1,0-0.2,0.1-0.2,0.3l-0.3,1.3c0,0.2-0.1,0.3-0.2,0.4
		c-0.1,0.1-0.2,0.1-0.4,0.1H52.5z M55.5,96.6c0,0.1,0,0.2,0,0.4c0,0.8,0.3,1.4,0.9,1.9c0.6,0.5,1.3,0.8,2.1,0.8c1.1,0,2-0.4,2.7-1.1
		c0.7-0.7,1.3-1.7,1.6-2.8c0.4-1.1,0.5-2.3,0.5-3.4c0-1.2-0.3-2.1-0.8-2.7s-1.3-0.9-2.2-0.9c-0.7,0-1.4,0.2-2.1,0.5
		c-0.7,0.3-1.3,0.8-1.9,1.4L55.5,96.6z"/>
	<path class="st0" d="M71.3,100.9c0,0.2-0.1,0.3-0.1,0.4c-0.1,0-0.2,0.1-0.4,0.1h-1.8c-0.4,0-0.5-0.2-0.5-0.5l2.8-19.2
		c0-0.1,0-0.2,0.1-0.3c0,0,0.1-0.1,0.2-0.1h2.2c0.2,0,0.3,0.1,0.2,0.4L71.3,100.9z"/>
	<path class="st0" d="M78.1,100.9c0,0.2-0.1,0.3-0.1,0.4c-0.1,0-0.2,0.1-0.4,0.1h-1.8c-0.2,0-0.3,0-0.4-0.1
		c-0.1-0.1-0.1-0.2-0.1-0.4l1.9-13.5c0-0.1,0-0.2,0.1-0.3c0,0,0.1-0.1,0.3-0.1h2.2c0.1,0,0.2,0,0.2,0.1c0.1,0.1,0.1,0.2,0.1,0.3
		L78.1,100.9z M80.5,84.3c0,0.2-0.1,0.3-0.2,0.4c-0.1,0.1-0.2,0.1-0.4,0.1h-2.1c-0.3,0-0.4-0.2-0.3-0.6l0.3-2.4
		c0.1-0.3,0.2-0.5,0.4-0.5h2.3c0.1,0,0.2,0,0.2,0.1c0.1,0.1,0.1,0.2,0,0.4L80.5,84.3z"/>
	<path class="st0" d="M82.1,100.8l1.9-13.5c0-0.1,0-0.2,0.1-0.3s0.1-0.1,0.2-0.1h2.2c0.2,0,0.3,0.1,0.2,0.3l-0.2,1.5v0.1
		c0,0.1,0,0.1,0.1,0.1c0.1,0,0.1,0,0.2-0.1c1.8-1.4,3.5-2.1,5.1-2.1c1.2,0,2.2,0.3,2.9,0.9s1,1.5,1,2.5c0,0.2,0,0.4-0.1,0.7l-1.4,10
		c0,0.2-0.1,0.3-0.1,0.3c-0.1,0.1-0.2,0.1-0.4,0.1h-2.1c-0.3,0-0.4-0.2-0.3-0.5l1.3-9.4c0-0.3,0.1-0.5,0.1-0.6
		c0-1.2-0.7-1.9-2.1-1.9c-0.7,0-1.4,0.2-2,0.5c-0.6,0.3-1.4,0.9-2.3,1.6l-1.4,9.9c0,0.2-0.1,0.3-0.1,0.3s-0.2,0.1-0.4,0.1h-2
		C82.1,101.4,82,101.2,82.1,100.8z"/>
	<path class="st0" d="M98.1,105.2c-1.1-0.6-1.7-1.4-1.7-2.5c0-0.7,0.3-1.3,0.8-1.9c0.5-0.5,1.2-1,2.1-1.3c0.2-0.1,0.3-0.2,0.3-0.2
		c0,0-0.1-0.1-0.2-0.1c-0.3-0.2-0.6-0.4-0.8-0.6c-0.2-0.2-0.3-0.5-0.3-0.9c0-0.5,0.2-1,0.7-1.4c0.5-0.4,1.1-0.7,1.8-0.9
		c0.2-0.1,0.3-0.1,0.3-0.2c0-0.1,0-0.1-0.1-0.2c-1.3-0.6-1.9-1.6-1.9-2.9c0-1.1,0.3-2,0.9-2.8c0.6-0.8,1.4-1.3,2.4-1.7
		s2.1-0.6,3.2-0.6c2,0,3.4,0.4,4.3,1.3c0.1,0.1,0.1,0.1,0.2,0.1c0.1,0,0.3-0.1,0.5-0.3c0.4-0.3,0.8-0.6,1.3-0.9
		c0.5-0.2,1-0.4,1.4-0.4c0.2,0,0.4,0,0.5,0.1c0.1,0.1,0.1,0.2,0.1,0.4l-0.2,1.2c0,0.2-0.1,0.4-0.1,0.4c-0.1,0.1-0.2,0.1-0.4,0.1
		c-0.6,0-1.1,0.1-1.5,0.2c-0.6,0.1-0.8,0.4-0.7,0.6c0.2,0.4,0.2,0.8,0.2,1.2c0,1.1-0.3,2-1,2.7c-0.6,0.7-1.5,1.3-2.5,1.6
		c-1,0.3-2.1,0.5-3.2,0.5c-0.8,0-1.6,0.1-2.4,0.2c-0.8,0.2-1.3,0.5-1.3,1c0,0.2,0.2,0.4,0.5,0.5c0.3,0.1,0.8,0.2,1.6,0.2l3.6,0.2
		c2.9,0.2,4.4,1.3,4.4,3.5c0,1.7-0.8,2.9-2.4,3.6c-1.6,0.7-3.5,1.1-5.7,1.1C100.8,106.1,99.2,105.8,98.1,105.2z M106.8,103.8
		c1-0.4,1.5-1.2,1.5-2.1c0-0.5-0.2-0.9-0.5-1.1c-0.3-0.2-0.9-0.4-1.7-0.4l-4.3-0.2c-0.8,0.2-1.5,0.5-2.1,0.9c-0.6,0.4-0.8,1-0.8,1.6
		c0,1.4,1.4,2.1,4.1,2.1C104.5,104.5,105.8,104.3,106.8,103.8z M107.5,93.2c0.7-0.6,1.1-1.4,1.1-2.5c0-0.7-0.3-1.3-0.8-1.7
		c-0.5-0.4-1.3-0.6-2.3-0.6c-1.1,0-2,0.3-2.8,0.9c-0.8,0.6-1.1,1.5-1.1,2.5c0,0.7,0.3,1.2,0.8,1.6s1.3,0.6,2.3,0.6
		C105.8,94.1,106.7,93.8,107.5,93.2z"/>
	<path class="st0" d="M130.7,101.4c-0.1,0-0.2,0-0.3-0.1c-0.1-0.1-0.1-0.2-0.1-0.3l0.2-1v-0.1c0-0.1,0-0.1-0.1-0.1
		c0,0-0.1,0.1-0.3,0.2c-1.3,1.2-2.8,1.8-4.3,1.8c-1.5,0-2.8-0.5-3.7-1.5c-0.9-1-1.4-2.4-1.4-4.2c0-1.5,0.3-3,0.9-4.4
		s1.4-2.5,2.5-3.4s2.4-1.3,3.8-1.3c0.8,0,1.5,0.1,2,0.4c0.5,0.3,1,0.6,1.5,1.1c0.1,0.1,0.2,0.2,0.3,0.2c0.1,0,0.2-0.2,0.3-0.5
		l0.9-6.3c0-0.1,0.1-0.2,0.1-0.3c0.1,0,0.1-0.1,0.3-0.1h2.2c0.2,0,0.3,0.2,0.2,0.5l-2.7,19.1c0,0.2-0.1,0.3-0.1,0.3
		c-0.1,0.1-0.2,0.1-0.4,0.1H130.7z M131.7,90.3c-0.4-0.5-0.9-0.9-1.4-1.2c-0.5-0.3-1-0.4-1.7-0.4c-1.1,0-2,0.4-2.8,1.1
		s-1.4,1.7-1.7,2.8c-0.4,1.1-0.6,2.2-0.6,3.3c0,1.2,0.3,2.2,0.9,2.8c0.6,0.6,1.4,0.9,2.3,0.9c0.6,0,1.3-0.2,1.9-0.5
		c0.6-0.3,1.1-0.7,1.5-1.2c0.4-0.5,0.6-0.9,0.7-1.4L131.7,90.3z"/>
	<path class="st0" d="M139.9,100.9c0,0.2-0.1,0.3-0.1,0.4c-0.1,0-0.2,0.1-0.4,0.1h-1.8c-0.2,0-0.3,0-0.4-0.1
		c-0.1-0.1-0.1-0.2-0.1-0.4l1.9-13.5c0-0.1,0-0.2,0.1-0.3c0,0,0.1-0.1,0.3-0.1h2.2c0.1,0,0.2,0,0.2,0.1c0.1,0.1,0.1,0.2,0.1,0.3
		L139.9,100.9z M142.3,84.3c0,0.2-0.1,0.3-0.2,0.4c-0.1,0.1-0.2,0.1-0.4,0.1h-2.1c-0.3,0-0.4-0.2-0.3-0.6l0.3-2.4
		c0.1-0.3,0.2-0.5,0.4-0.5h2.3c0.1,0,0.2,0,0.2,0.1c0.1,0.1,0.1,0.2,0,0.4L142.3,84.3z"/>
	<path class="st0" d="M144,105.2c-1.1-0.6-1.7-1.4-1.7-2.5c0-0.7,0.3-1.3,0.8-1.9c0.5-0.5,1.2-1,2.1-1.3c0.2-0.1,0.3-0.2,0.3-0.2
		c0,0-0.1-0.1-0.2-0.1c-0.3-0.2-0.6-0.4-0.8-0.6c-0.2-0.2-0.3-0.5-0.3-0.9c0-0.5,0.2-1,0.7-1.4c0.5-0.4,1.1-0.7,1.8-0.9
		c0.2-0.1,0.3-0.1,0.3-0.2c0-0.1,0-0.1-0.1-0.2c-1.3-0.6-1.9-1.6-1.9-2.9c0-1.1,0.3-2,0.9-2.8c0.6-0.8,1.4-1.3,2.4-1.7
		s2.1-0.6,3.2-0.6c2,0,3.4,0.4,4.3,1.3c0.1,0.1,0.1,0.1,0.2,0.1c0.1,0,0.3-0.1,0.5-0.3c0.4-0.3,0.8-0.6,1.3-0.9
		c0.5-0.2,1-0.4,1.4-0.4c0.2,0,0.4,0,0.5,0.1c0.1,0.1,0.1,0.2,0.1,0.4l-0.2,1.2c0,0.2-0.1,0.4-0.1,0.4c-0.1,0.1-0.2,0.1-0.4,0.1
		c-0.6,0-1.1,0.1-1.5,0.2c-0.6,0.1-0.8,0.4-0.7,0.6c0.2,0.4,0.2,0.8,0.2,1.2c0,1.1-0.3,2-1,2.7c-0.6,0.7-1.5,1.3-2.5,1.6
		c-1,0.3-2.1,0.5-3.2,0.5c-0.8,0-1.6,0.1-2.4,0.2c-0.8,0.2-1.3,0.5-1.3,1c0,0.2,0.2,0.4,0.5,0.5c0.3,0.1,0.8,0.2,1.6,0.2l3.6,0.2
		c2.9,0.2,4.4,1.3,4.4,3.5c0,1.7-0.8,2.9-2.4,3.6c-1.6,0.7-3.5,1.1-5.7,1.1C146.7,106.1,145.1,105.8,144,105.2z M152.7,103.8
		c1-0.4,1.5-1.2,1.5-2.1c0-0.5-0.2-0.9-0.5-1.1c-0.3-0.2-0.9-0.4-1.7-0.4l-4.3-0.2c-0.8,0.2-1.5,0.5-2.1,0.9c-0.6,0.4-0.8,1-0.8,1.6
		c0,1.4,1.4,2.1,4.1,2.1C150.4,104.5,151.7,104.3,152.7,103.8z M153.4,93.2c0.7-0.6,1.1-1.4,1.1-2.5c0-0.7-0.3-1.3-0.8-1.7
		c-0.5-0.4-1.3-0.6-2.3-0.6c-1.1,0-2,0.3-2.8,0.9c-0.8,0.6-1.1,1.5-1.1,2.5c0,0.7,0.3,1.2,0.8,1.6s1.3,0.6,2.3,0.6
		C151.7,94.1,152.6,93.8,153.4,93.2z"/>
	<path class="st0" d="M163.1,100.9c0,0.2-0.1,0.3-0.1,0.4c-0.1,0-0.2,0.1-0.4,0.1h-1.8c-0.2,0-0.3,0-0.4-0.1
		c-0.1-0.1-0.1-0.2-0.1-0.4l1.9-13.5c0-0.1,0-0.2,0.1-0.3c0,0,0.1-0.1,0.3-0.1h2.2c0.1,0,0.2,0,0.2,0.1c0.1,0.1,0.1,0.2,0.1,0.3
		L163.1,100.9z M165.5,84.3c0,0.2-0.1,0.3-0.2,0.4c-0.1,0.1-0.2,0.1-0.4,0.1h-2.1c-0.3,0-0.4-0.2-0.3-0.6l0.3-2.4
		c0.1-0.3,0.2-0.5,0.4-0.5h2.3c0.1,0,0.2,0,0.2,0.1c0.1,0.1,0.1,0.2,0,0.4L165.5,84.3z"/>
	<path class="st0" d="M169.4,100.7c-0.5-0.4-0.8-1.1-0.8-2c0-0.4,0-0.6,0.1-0.8l1.2-8.5v-0.1c0-0.1-0.1-0.2-0.3-0.2h-2
		c-0.2,0-0.3-0.1-0.2-0.4l0.2-1.4c0-0.1,0-0.1,0.1-0.2c0,0,0.1,0,0.2,0h2.2c0.1,0,0.1,0,0.2-0.1s0.1-0.1,0.1-0.2l0.9-4.2
		c0-0.2,0.2-0.3,0.4-0.3h1.9c0.1,0,0.2,0,0.2,0.1c0,0.1,0.1,0.2,0,0.4l-0.6,4.1v0.1c0,0.1,0.1,0.2,0.2,0.2h3.2
		c0.3,0,0.4,0.1,0.4,0.3l-0.2,1.5c0,0.1,0,0.2-0.1,0.2c0,0-0.1,0.1-0.3,0.1h-3.2c-0.2,0-0.3,0.1-0.4,0.4l-1.1,7.9
		c-0.1,0.2-0.1,0.5-0.1,0.7c0,0.5,0.1,0.8,0.4,1c0.2,0.2,0.6,0.3,1.1,0.3h1.7c0.1,0,0.2,0,0.2,0.1c0.1,0.1,0.1,0.2,0.1,0.3l-0.2,1.2
		c0,0.3-0.1,0.4-0.4,0.4c-0.6,0.1-1.5,0.1-2.7,0.1C170.8,101.4,170,101.1,169.4,100.7z"/>
	<path class="st0" d="M181.3,101.6c-1.3,0-2.3-0.3-3-0.9c-0.7-0.6-1.1-1.5-1.1-2.5c0-1.8,0.8-3.1,2.4-4c1.6-0.9,3.5-1.4,5.6-1.5
		l1.8-0.1c0.2,0,0.3-0.1,0.4-0.1c0.1-0.1,0.2-0.2,0.2-0.3l0.1-0.7c0-0.1,0-0.3,0-0.5c0-0.7-0.2-1.3-0.7-1.7
		c-0.5-0.4-1.1-0.6-1.9-0.6c-1.6,0-2.9,0.7-3.9,2.1c-0.1,0.1-0.3,0.2-0.5,0.1l-1.8-0.5c-0.1,0-0.2-0.1-0.2-0.3c0-0.1,0-0.2,0.1-0.4
		c0.6-0.9,1.5-1.7,2.6-2.1s2.3-0.7,3.8-0.7c1.7,0,3,0.3,3.8,1c0.9,0.7,1.3,1.6,1.3,2.8c0,0.2,0,0.5-0.1,0.8l-1.3,9.5
		c0,0.2-0.1,0.3-0.1,0.3c-0.1,0-0.2,0.1-0.3,0.1h-1.8c-0.3,0-0.4-0.2-0.4-0.5l0.1-1.1c0-0.1,0-0.2-0.1-0.2s-0.2,0.1-0.3,0.2
		C184.8,101,183.2,101.6,181.3,101.6z M187.2,94.5v-0.1c0-0.1,0-0.1-0.1-0.2c0,0-0.1,0-0.2,0l-1.6,0.1c-1.4,0.1-2.6,0.4-3.6,0.9
		c-1.1,0.5-1.6,1.3-1.6,2.5c0,0.6,0.2,1,0.6,1.4s1,0.5,1.7,0.5c0.5,0,1.1-0.1,1.6-0.3c0.5-0.2,1-0.4,1.4-0.7c0.4-0.3,0.7-0.6,1-1
		s0.4-0.7,0.5-1L187.2,94.5z"/>
	<path class="st0" d="M195.7,100.9c0,0.2-0.1,0.3-0.1,0.4c-0.1,0-0.2,0.1-0.4,0.1h-1.8c-0.4,0-0.5-0.2-0.5-0.5l2.8-19.2
		c0-0.1,0-0.2,0.1-0.3c0,0,0.1-0.1,0.2-0.1h2.2c0.2,0,0.3,0.1,0.2,0.4L195.7,100.9z"/>
	<path class="st0" d="M208.7,100.9c-0.9-0.5-1.7-1.2-2.2-2.2c-0.5-0.9-0.8-2-0.8-3.2c0-1.5,0.3-2.9,1-4.3s1.6-2.4,2.8-3.2
		c1.2-0.8,2.6-1.2,4.2-1.2c1.8,0,3.2,0.5,4.3,1.6c1,1.1,1.6,2.5,1.6,4.4c0,0.5,0,1.1-0.1,1.5c0,0.3-0.2,0.4-0.6,0.4H209
		c-0.1,0-0.2,0.1-0.3,0.3c-0.1,0.2-0.1,0.5-0.1,0.9c0,1.1,0.3,2,1,2.6c0.7,0.6,1.6,1,2.7,1c1.7,0,3.1-0.7,4.3-2.1
		c0.1-0.1,0.2-0.1,0.2-0.1c0.1,0,0.2,0,0.2,0.1l1.3,0.6c0.1,0.1,0.2,0.2,0.2,0.3c0,0.1,0,0.2-0.1,0.2c-0.9,1.1-1.9,1.9-2.9,2.3
		s-2.2,0.7-3.6,0.7C210.7,101.6,209.6,101.4,208.7,100.9z M216.3,93.1c0.2,0,0.4-0.1,0.5-0.3c0.1-0.2,0.2-0.5,0.2-0.9
		c0-1-0.3-1.7-0.9-2.3c-0.6-0.6-1.4-0.9-2.3-0.9c-0.8,0-1.6,0.2-2.3,0.6c-0.7,0.4-1.2,1-1.7,1.6c-0.4,0.7-0.7,1.4-0.8,2.2H216.3z"/>
	<path class="st0" d="M235,87.2c0.1,0.1,0.1,0.2,0,0.4l-7.3,13.4c-0.1,0.2-0.2,0.3-0.3,0.3s-0.2,0.1-0.4,0.1h-1.3
		c-0.2,0-0.3,0-0.5-0.1s-0.2-0.2-0.2-0.4l-3.6-13.4l0-0.1c0-0.2,0.1-0.3,0.4-0.3h2.2c0.1,0,0.2,0,0.3,0.1c0.1,0.1,0.1,0.2,0.1,0.3
		l2.5,9.8c0,0.1,0.1,0.2,0.1,0.2c0.1,0,0.2-0.1,0.3-0.4l5.2-9.7c0.1-0.1,0.1-0.2,0.2-0.2s0.1-0.1,0.3-0.1h1.6
		C234.9,87,235,87.1,235,87.2z"/>
	<path class="st0" d="M238.1,100.9c-0.9-0.5-1.6-1.2-2.1-2.2c-0.5-0.9-0.7-2-0.7-3.2c0-1.7,0.4-3.1,1.1-4.5c0.7-1.3,1.7-2.4,2.9-3.1
		c1.2-0.7,2.6-1.1,4-1.1c1.2,0,2.3,0.3,3.2,0.8c0.9,0.5,1.6,1.3,2.1,2.2c0.5,0.9,0.7,2,0.7,3.3c0,1.6-0.3,3.1-1.1,4.4
		c-0.7,1.3-1.7,2.3-2.9,3.1s-2.6,1.1-4,1.1C240.1,101.6,239,101.4,238.1,100.9z M244,98.7c0.8-0.6,1.4-1.4,1.8-2.4
		c0.4-1.1,0.7-2.3,0.7-3.7c0-1.2-0.3-2.1-0.9-2.8s-1.4-1-2.4-1c-1,0-1.8,0.3-2.6,0.9c-0.8,0.6-1.4,1.4-1.8,2.5
		c-0.5,1.1-0.7,2.3-0.7,3.7c0,1.2,0.3,2.1,0.9,2.8s1.4,1,2.5,1C242.4,99.6,243.3,99.3,244,98.7z"/>
	<path class="st0" d="M254.3,100.9c0,0.2-0.1,0.3-0.1,0.4c-0.1,0-0.2,0.1-0.4,0.1h-1.8c-0.4,0-0.5-0.2-0.5-0.5l2.8-19.2
		c0-0.1,0-0.2,0.1-0.3c0,0,0.1-0.1,0.2-0.1h2.2c0.2,0,0.3,0.1,0.2,0.4L254.3,100.9z"/>
	<path class="st0" d="M259.6,100.6c-0.7-0.6-1.1-1.5-1.1-2.6c0-0.3,0-0.6,0-0.7l1.4-9.9c0-0.2,0.1-0.3,0.1-0.3
		c0.1-0.1,0.2-0.1,0.3-0.1h2c0.1,0,0.2,0,0.3,0.1c0.1,0.1,0.1,0.2,0.1,0.4l-1.3,9.3c0,0.1,0,0.3,0,0.5c0,1.3,0.7,2,2.1,2
		c0.7,0,1.4-0.2,2.1-0.6c0.7-0.4,1.4-0.9,2.2-1.6l1.4-9.9c0-0.2,0.1-0.3,0.1-0.3c0.1,0,0.2-0.1,0.4-0.1h1.9c0.1,0,0.3,0,0.3,0.1
		c0.1,0.1,0.1,0.2,0.1,0.4l-1.9,13.5c0,0.1-0.1,0.2-0.1,0.2c0,0-0.1,0.1-0.2,0.1h-2.1c-0.2,0-0.3-0.1-0.3-0.3l0.2-1.5v-0.1
		c0-0.1,0-0.1-0.1-0.1s-0.1,0-0.2,0.1c-1,0.8-1.8,1.3-2.6,1.6c-0.8,0.3-1.6,0.5-2.4,0.5C261.2,101.6,260.3,101.3,259.6,100.6z"/>
	<path class="st0" d="M276.5,100.7c-0.5-0.4-0.8-1.1-0.8-2c0-0.4,0-0.6,0.1-0.8l1.2-8.5v-0.1c0-0.1-0.1-0.2-0.3-0.2h-2
		c-0.2,0-0.3-0.1-0.2-0.4l0.2-1.4c0-0.1,0-0.1,0.1-0.2c0,0,0.1,0,0.2,0h2.2c0.1,0,0.1,0,0.2-0.1s0.1-0.1,0.1-0.2l0.9-4.2
		c0-0.2,0.2-0.3,0.4-0.3h1.9c0.1,0,0.2,0,0.2,0.1c0,0.1,0.1,0.2,0,0.4l-0.6,4.1v0.1c0,0.1,0.1,0.2,0.2,0.2h3.2
		c0.3,0,0.4,0.1,0.4,0.3l-0.2,1.5c0,0.1,0,0.2-0.1,0.2c0,0-0.1,0.1-0.3,0.1h-3.2c-0.2,0-0.3,0.1-0.4,0.4l-1.1,7.9
		c-0.1,0.2-0.1,0.5-0.1,0.7c0,0.5,0.1,0.8,0.4,1c0.2,0.2,0.6,0.3,1.1,0.3h1.7c0.1,0,0.2,0,0.2,0.1c0.1,0.1,0.1,0.2,0.1,0.3l-0.2,1.2
		c0,0.3-0.1,0.4-0.4,0.4c-0.6,0.1-1.5,0.1-2.7,0.1C277.8,101.4,277,101.1,276.5,100.7z"/>
	<path class="st0" d="M287.5,100.9c0,0.2-0.1,0.3-0.1,0.4c-0.1,0-0.2,0.1-0.4,0.1h-1.8c-0.2,0-0.3,0-0.4-0.1
		c-0.1-0.1-0.1-0.2-0.1-0.4l1.9-13.5c0-0.1,0-0.2,0.1-0.3s0.1-0.1,0.3-0.1h2.2c0.1,0,0.2,0,0.2,0.1c0.1,0.1,0.1,0.2,0.1,0.3
		L287.5,100.9z M289.9,84.3c0,0.2-0.1,0.3-0.2,0.4c-0.1,0.1-0.2,0.1-0.4,0.1h-2.1c-0.3,0-0.4-0.2-0.3-0.6l0.3-2.4
		c0.1-0.3,0.2-0.5,0.4-0.5h2.3c0.1,0,0.2,0,0.2,0.1c0.1,0.1,0.1,0.2,0,0.4L289.9,84.3z"/>
	<path class="st0" d="M294.3,100.9c-0.9-0.5-1.6-1.2-2.1-2.2c-0.5-0.9-0.7-2-0.7-3.2c0-1.7,0.4-3.1,1.1-4.5c0.7-1.3,1.7-2.4,2.9-3.1
		c1.2-0.7,2.6-1.1,4-1.1c1.2,0,2.3,0.3,3.2,0.8c0.9,0.5,1.6,1.3,2.1,2.2c0.5,0.9,0.7,2,0.7,3.3c0,1.6-0.4,3.1-1.1,4.4
		c-0.7,1.3-1.7,2.3-2.9,3.1s-2.6,1.1-4,1.1C296.3,101.6,295.2,101.4,294.3,100.9z M300.2,98.7c0.8-0.6,1.4-1.4,1.8-2.4
		c0.4-1.1,0.7-2.3,0.7-3.7c0-1.2-0.3-2.1-0.8-2.8c-0.6-0.7-1.4-1-2.4-1c-1,0-1.8,0.3-2.6,0.9s-1.4,1.4-1.8,2.5
		c-0.4,1.1-0.7,2.3-0.7,3.7c0,1.2,0.3,2.1,0.9,2.8s1.4,1,2.5,1C298.6,99.6,299.4,99.3,300.2,98.7z"/>
	<path class="st0" d="M307.6,100.8l1.9-13.5c0-0.1,0-0.2,0.1-0.3s0.1-0.1,0.2-0.1h2.2c0.2,0,0.3,0.1,0.2,0.3l-0.2,1.5v0.1
		c0,0.1,0,0.1,0.1,0.1c0.1,0,0.1,0,0.2-0.1c1.8-1.4,3.5-2.1,5.1-2.1c1.2,0,2.2,0.3,2.9,0.9s1,1.5,1,2.5c0,0.2,0,0.4-0.1,0.7l-1.4,10
		c0,0.2-0.1,0.3-0.1,0.3s-0.2,0.1-0.4,0.1h-2.1c-0.3,0-0.4-0.2-0.3-0.5l1.3-9.4c0-0.3,0.1-0.5,0.1-0.6c0-1.2-0.7-1.9-2.1-1.9
		c-0.7,0-1.4,0.2-2,0.5c-0.6,0.3-1.4,0.9-2.3,1.6l-1.4,9.9c0,0.2-0.1,0.3-0.1,0.3c-0.1,0-0.2,0.1-0.4,0.1h-2
		C307.6,101.4,307.5,101.2,307.6,100.8z"/>
</g>
</svg>
